<mxfile host="app.diagrams.net" modified="2022-04-09T03:43:10.738Z" agent="5.0 (X11; Linux x86_64) AppleWebKit/537.36 (KHTML, like Gecko) Chrome/96.0.4664.113 Safari/537.36" etag="17kPQb-YLfu-klFro0Y5" version="17.4.1" type="github">
  <diagram id="XtxxwsZEFnUDytrK3T5H" name="Blocking code ">
    <mxGraphModel dx="1108" dy="635" grid="1" gridSize="10" guides="1" tooltips="1" connect="1" arrows="1" fold="1" page="1" pageScale="1" pageWidth="1700" pageHeight="1100" math="0" shadow="0">
      <root>
        <mxCell id="0" />
        <mxCell id="1" parent="0" />
        <mxCell id="G2199Bfi6B8Bha8hxR0G-1" value="JSON.stringify&lt;br&gt;JSON.parse&lt;br&gt;[].sort" style="rounded=0;whiteSpace=wrap;html=1;fontFamily=Comfortaa;fontSource=https%3A%2F%2Ffonts.googleapis.com%2Fcss%3Ffamily%3DComfortaa;fontSize=25;fillColor=#d5e8d4;strokeColor=#82b366;" parent="1" vertex="1">
          <mxGeometry x="360" y="120" width="280" height="100" as="geometry" />
        </mxCell>
        <mxCell id="G2199Bfi6B8Bha8hxR0G-2" value="This usually just take a little millisecond, but if our server receive thousand of request, it can block other request" style="text;html=1;strokeColor=none;fillColor=none;align=center;verticalAlign=middle;whiteSpace=wrap;rounded=0;fontFamily=Comfortaa;fontSource=https%3A%2F%2Ffonts.googleapis.com%2Fcss%3Ffamily%3DComfortaa;fontSize=25;" parent="1" vertex="1">
          <mxGeometry x="225" y="270" width="550" height="30" as="geometry" />
        </mxCell>
        <mxCell id="G2199Bfi6B8Bha8hxR0G-3" value="Since these are sync code, it will block the code below it" style="rounded=0;whiteSpace=wrap;html=1;fontFamily=Comfortaa;fontSource=https%3A%2F%2Ffonts.googleapis.com%2Fcss%3Ffamily%3DComfortaa;fontSize=25;fillColor=#dae8fc;strokeColor=#6c8ebf;" parent="1" vertex="1">
          <mxGeometry x="730" y="120" width="380" height="100" as="geometry" />
        </mxCell>
        <mxCell id="pzDwCbUzXM5383cVoAPk-1" value="" style="shape=image;verticalLabelPosition=bottom;labelBackgroundColor=default;verticalAlign=top;aspect=fixed;imageAspect=0;image=data:image/png,iVBORw0KGgoAAAANSUhEUgAAAcoAAACXCAYAAACV+xtBAAAABHNCSVQICAgIfAhkiAAAABl0RVh0U29mdHdhcmUAZ25vbWUtc2NyZWVuc2hvdO8Dvz4AAAAtdEVYdENyZWF0aW9uIFRpbWUAU2F0IDA5IEFwciAyMDIyIDEwOjQxOjI4IEFNICswNzSs6BYAACAASURBVHic7L13lFzXfef5ufeFSt3VOQKNDsg5EARIggQzKRIiaVGSRcqiJFvWeMZ7PCPvnJ0/Ztezc86eM3+MZ70ez1reGY+psSyNA0UqUBYlkWIGQRAgciM20AGdc3fleu/du3+8V9XVSARFUCLp+vIUUV316r6b3i//fle0LW3TlFFGGWWUUUYZV4T8dXegjDLKKKOMMj7KKDPKMsooo4wyfqUQQvy6u/C+UGaUH0uI4PVJgQ5eZfx68EnaS2V8HKD1x+t5LzPKjyU+XpusjI8uSkUU/32ZaZZRxqUwf90dKOOXxSeJWZaJ868TuriXyutQRhlXwoeuUX7cVOyPOrT+cOZUaP/1YcIwDKSUiOskyB/HvfOr6rOUEimv7/EVWiB0yZxrEFoukrU0IAWYUmCaJoZh3NgOl1HGxxg3VKPUCDQCTxhoYSKExNAOKBeBupG3+lCgEShpAgKhFUJ7iI+U5qYRQmOaBkp5KHW9vkqfC9qWRBr+n1pBLueBkEUiqj9EhSIej3P77bczODhId3c3nudd9VqFgbRs0ArlOf5afHhduyHQgBYG0jDQygPtfWh9Nk2Tbdu2EY/H2bdvH6lU6j37tghCoDUgCIQWjRCC5uYWbtq2jZqaGiYmJ3j1lVfJ5rIf0ijKKOPjA6MqXvXvb1RjGgMZqaJ9zVY6191Ex6r11FTFmRgbQWiv5LpfnZHHZ94SJUwIIq2udG+f0ElqWzpYv3Un6XSGTCqJfB+M8sMfl6azaylPfekJUql5xsen0Neln2mqqmJ87Xd/i09/+j7uvPM2ujqXcfRYN1oBiA+VSUopufvuu/n6736d4yeO09fXt0jzutTwV9Pcxm997Z8Trqjk4kAvqA+P6VwTQqCFgTKCvaMX9/OSi2lq7+Kxz36eqdk55memf6k+X48RVGvNTTfdxJe+9CX6+wcYGhq8dqNCXN6g8NspfGUYBr/3z36PRx55lKrqahzH5cSJ4+Tz+V9iFGWU8cnCL2l61QitKJVVtQZlRujafAdrdz+O1boJr2IpOlyDh4kQAqFLQgcKTOvSMGEdtC+0T0zFlXU6HYjEl5q6ROktNGgkNU1tbL97D3WtXWiMwHwpQEv/FVARDdg1bbSu2Ykdb0ZJ6ypsUgT3Lu20LvZL3ADz6OXsTwOKxsY4t+/aQmtzHI2LRl3WxyvdW+k8eWeOTHqKjvZa1q5dgmVqn2CKhTFoHcx76ZgoWWldqsVeWaPVl+yN2tpadu3axYXePg4fOYKnvEV9LrSvgjbD1Q1s2HU3LSvX+kyqOLf+q9AHgb+BLzcbC4RYMB0u2mNCIDXI4DfF77RGaoXQC6KHQlLf1sET//wbrNy4FQdQhfEXmaa/BxUQrmtgw+13EW5sxSvZt4U5FYign5dE+Rb6L3x/Yen6CX8TLzKdKqV46623GB8f5847dxOLxS5bg8W4UlSxXjQv8XiclatWcfTYUf7oj/6Ip5/+K5LJ5FVbFFdqsowyPqH4wKZX/1kRKGGAXUnVkhUk5ufZ++I/IlKT2F4SlIPSCl0kXhqhdVHb04EtUBaJtkQpX8NDC9AaIVSg3fkURQTEXQsTpTVaCJ8Z45vphPAJbx6LUE0rDStvZmh8Fnd4CEMX2lJFTcrvh2RqdJAjb7/G3OQwEq9omgp6XWjdf8mAuAYGWh30q8AmFq7VSFTRjHspfbmyhlsqhLh+u9oFHMDzmZHQAQEVoBVCKLQO2isIAMK/QzKR49t//RyGyPGv/9f/hdq6+JVXsjCv6OCjoHeiwJYKRF/5f4sSQUMrtPYQgWlPBGuyatUqli5dyve+9ywzMzM+4RcL9wSJ0iCkgafBFZK8FgGzWWBaQhRMsH7fFMK/f0C1ZcC/PE8jpPIZb2E+CuxP68B6IPA0SO2PSQhdbFuhURocBLH6Ftbddi8DFy+SP3qUsPDwgntJtC8gaoGSkvGhQX7wt99hrP8CsmSRRTAOL3BNFJilhIBbB4JmINgJGVwbSAZGiSAnAgY3NTXFvn37+NSnHqKtrY1Tp05dYRddP8LhMOFwiIGBfmZmpt/TPFK6Ncoo45OOX5JRFriLACEwQzFC8QaItyKideScDLGQSUSG0LkcyZxGSBOroh7LMknPTaHdHEoYhGJVWKEo2cQ0yskirBDReB2prEMkEqGxqRXPdRgd6sdJTmFot9gHJUMQrqahqZmq6mqymTQzE2MkZiYQyiEar8GO1CLjrWTMaoyqJcQal2HpHE5yBieTQGsXjUEoWoVdWUte2IyODOFkU6AUOiDVGoErQ4Sq6mlpXYppWiQSCaaGB3BzSaR20UjMSJxwZTWpdIqamnrq6huYmZlmargPlU9hcHXf3KIZFgKtXWKxMBs3rmdZext9fb1EoyCEh5ALTFjgUVlhs3btSpav6CKZSHLs2CkGBoZR2gjaMsllQbkOnncVCicU4bBFa2sjK1euoLa2lomJSU6c6GZsbBKtTCzbYunSFjw3y8joJI7jU1SlXGrrqqivr2JkeJJkMlPUjLZs2YLjOLyzf3/AtwsiQ8AIwxUsX7mGFSvXMDc3x0ROo0yLAltUQlJd30xFNML4yCAqn8VDUlFdR2VdI9Pjw+SS86AV2rBpWLIET0imZmZYu3Ydne0djI4Oc/bEMdLzsyjDor5lCR3LV9LY0EQyNc+p7hNMDQ6i3SxCCqpq64nUNVO7bAWOXUllcztLV64njEs2McvMuO9OUEiq6huI1dTjCoOes+dIz88VmbPG1yiVaVHd0MLaDVuoralmZPAiZ091k5qdxBC+CbSipp7KmlqmZ+dY0tZOe2cn42Nj9Bw/SjYxFwgnCwkchw4dYs+ePWzevOUDM8qCcOO6wfP1XkywzCTL+CeEX1qj1EgEoDCpampnzS3344TrsapaEMph212PEFIpEoMnObL3F3jKZe32e2lsqOONnz6HOz+KKyxWb7iZ9rXb2P/SD5ka6qGmoZOd9/0G02mXsG2DFSYSDtM8McjxV54lNz2ExEMJi/qOdSzffh/h6kayuTwGitU6x7uv/4Spi+dYsnorrau24UYaUFYFy9bdzLLO5Rg6z9DJdzh7+E0sFJ6w6Nq4k/rl2xDhCsKGx9HXfsTQuaNYQVCGh0Hrys0s3/EAMlSJ6ynaLZPkRB8n9r5AZqIPLU2WrN/B8m13MjU9TSRagTQt2qwQ4+cOcOS1H2N4qesMEFK0tNTyta99gS1bV5FIzSHEDlwnh2X72oavwWpWLG/jqd96lFWr20mnE4RCNp95/F6e+Yef8NLLB8jnXYQQKLVgarxSZQzLlHzuc3t48FO34Xg5PNclHA6RTNzL//zuD9i79xghW/O1r/0mdXUx/u8/+Ut6eoZBg2V7fOWrn2XduuX88X/8b/Scu4jWglAoRGdHJ+Pj48zPzSGFRAUMVAmBjFTywG9+ldvu/RSpvEJoSHkKz4qihH+NkBa7H/k8O3fcxH/4d/+WzPggjjTZuOsuHvr8l/irP/kPnD9+CEsrskaIx7/+B0RrWxgeG2XV6jW4niIkNK98/+949fln2XjzHfzGl7+GZ0fxPA/TtrhHwpvPP8drP/4eTj7D1jvu4aa7H4bKOsxoJVt238fazduwlEPPob089zdPg+vhCsGW2+9k+717MKNVVNqS//Ff/hNnD76FEYxTWpINt93DY0/9HiIcJ5NNcUsszGhfDz94+psM95zCkLDlzgfY84UvcXFkjEgsjjBMKior6D/6Nt/55v9DfmayyJ+01sxMzzAzM8vatWsIhULkcrlf6lkWQgQRyQLlffSD7soo41eNX970KgrmQY/p0X72v/xjqFzCxtv3QG6eg2/8HNuZQ2ZnfSndsNBWFOwYHoZvFhMGStgoqwKMEAITT9ioUCVV0TAn9v2c0dExOlasYfnG7dQtXU7f9Cg2GhlvZv0t9+GGazmy72VmxgaxDc3SJUuRXhap8/SfOsyFvovUdW5i/Y676e0+yFjPEUyVR2dnMQJjmIHmXPdhenr7qV+5jc1btuIJ2x+mAE9LVLSelVt34RohDr36Y9LJJB3L17B2y06WrZ3k5MwEQnloI4IM1xCy0xzZ+wuymRTrbr6LtuXrOHP8MO5ET2DAvRaz1CiV5+YdG7npprXsfXM/P/rxT2huaeKfff1JTNM3FyI0lZUhfvt3nqCrq4nvP/s8Bw4cpqGxhief/DxPfPExLvQPcub0AELIwHd4rUhZwdT0HP/wD89z7txZMpkcLS11fPkrX+KJJz/Dye4LzExP88brb/D1r/8mGzas4tzZfoSwaW2tZ/v29ZzrOcvo6DAFs2o8HqemtpaTJ7txHKfoW0ZrXCTrNmzhjgc/Tc/Z0/zo2b8nbEfY84WnMNqWFPuqhMSzwohIDC+IStYIMGx0KA6GHZjdfVOzDEVo6FgBUvLMt7/F5MhFGhvqITULaLLpOfa+9ALdZ86RSSWx47U88dRX2XH/I5w6dpiLZ47xzmsv8+7hY7Sv385jX/k99r/yc9555WdE8PCSs0jPRWjf/Hrg9dc4duI0reu28qUvPglWOJhNjUJQUdvC3Xsex6qI872//it6z/ewZft27vuNx7n9oUf57l/0InQebUWxK+tRY7P8/dP/lXQ6xac/9wRbd+6i/Rcv0fPO62hPFdz7ZLIZZmdnaGxspLKy8pdilEIIwuEwW7duxbJs5ufn33cbZZTxSccH8FHqwI2h0Pk02ekhhCfBySBy82QmB1DODCYeBuDia2WeligtFnwyQqIw8b2GfpShRnJxoI/+kwfRrkOfm6N55Rbidc0oYQOKumVriNS0cODgQS6ePEhYp/G0y+mRC1iGRqo8TnKKbDpHdUMr0svhJqfITPRj4SC147NrrZG4OIkpVHqeTFMHQkgUBgJZdMZUt3QRq23h0JGjTPWewNAuZxOT1C9bTX1rJ0akGjc5jcYAJBdOH2ey7yQoh4HzzbS13IFVUYszYRQ9mtdyBElDs23bBhKJGb77ne8xNj5HT88QK5e38fjjjyOk7xldsXwp6zd00X3iMIcOHyGX9xgeHmPfvr185be/ytq1yzl7th/lKT9AqtRTuujWAsf1+NkLL2Jaikg4TDQWY3R0nN4L57hl5600NtQyPTXF/v0H+cxn7mbnzpt44Scv47qSm7ZvJB6PcPTIcdKpDFpbCCGIRCJEoxEcx/dTK6UR0kAIMOwwW27ZhbDDvPHyiwyePIRA8nZTMyvXrKEYNIXAReJp3ycahMUgpIkrTX9MQQCSUr7PMJXJ8Hf/4684d+htLJ1nSGik52IJwakTx+g+dQYrEiMcDpF2NO8cPMRDn/k8lfWNiLOQnpkkNztHdX0TeHnSU2NMXDhDFA9DFHzTILQiPTvN7Pw8kbomlOf5vvXiMyJpWNZFS3sXr+3dy4GXX0B4Li8ND9C2fhPrb9pBZX0zuclBlDDIuy5v732DM4f2oT2Po21tbNt+M/GGpsAfXDCTapRSOI5DNBojEom+7ye4oqKCJ598ko6ODpYvX87Jk90cOXLkfbdTRhmfdHygYJ6SODwMlUfqfMB8XEwcLJ3zTX6BmVayIPUXGtBCB+ETGhUEYxi4pKeGCDtzgMbIJ8HJEQpFUcICXOINbXhKk5/qJ+YlsckVI0CFV+iVRmoHU+WReEhcTOFgqtyCRieCnEk0WimsYsBIaWSlJlRZi0aQnR7BVmksncfLKuYmR4gvaUUbEV+bQWF4edzZEUJeyg+/dxJorbDCMb9Pixjl4pksLowpqKurZXJihvnZHFqF0drjQu8o+bzvqzKFoG1JI2FL0dXVyTf+8F+gFEghiUQNstk08aoohiHQQc6lFgIlwAvmvHQxTGmydu0q7rl3J8vaWwmFLKThUVdbhW1KQiETtCCRyPDuoaPcd99DrFrZzvDwHDu2b2FmeppTJ/pQykAERN3zfGJeWHfftxpEglom0eoacukEc2NDRLwcWmsmBnsRyilGpoIo7h0hJAjhC1v+qgFB9CsaKSQGgtmxEUbPHCWm0kjtUogd0kiam5q57f49dKzbhLBDKCNMqKIazzARhuEHRmkXQ4OhHH8/aw9LKyxUMQdRC39PK+1hKI1UDgZ+gFVhf3lCYFVVIw1B/5luTDeDoRy8vGZqcAi7s4NwRZzsuEIrB/JpclPD2E7G/306idaKiopKkCBFIfR3wYSulIfnuUG6x/tzHgohcPIOnueRy+U+lkUeyijjw8YNLDiw+AETiz7zoyhVkO4hhFEge0hhBqH8ohCgGRAqFaSgFNopaEP+dUL6vi7tuWih0CgIwv4LEXm+xE/Qtri0iws9L4TliyA4RisKsat+fKfENC2f0HpekZhoNK7rIKSfh+brzr7BTSu3OH4RRKAWmAQUIkgLptDLIQRYpkU2rfDQxRQOz3WBBa3Qti0QkhMnTvHKK28jsNFKIaRPT4eGJ/0oUAo2gEIYTaAxF2ZeKBoaq/jyVz7LsvYWXvz5y5w924vWDvfddxtbNm/yK8EIA601R46c5r77H2D3XTdzYP9ROrvaOXjgEIOD44vGlEwmSCZThCNhRLEXxVUEKdEaPNcLUiQE2nORaiHFxF9D3+SoVbDAQiCCyjQLqSX+X0JocpkkTj6HFUSX+ttAos0w933ui2zdeRtv79vH2eNHSDuK9jUbueOhxygKSFoE7oUCQw6EuoWw4uBuftRzUQgs7oyC3UBjmiZocHJ5/HBu/+eek8M0DSyz8BgWNEUPISVaB0JVkQEuRAELBJZlEYlESCQSJBLJkvtfH1LJFN/+628TjoR5+OGHefSRRzl69ChDw0Pvq50yyvik44YxylIeJK7wzje1Kp/QFsxl0iJSUV0Sx+djochZQevziWOBoYEmk5rHMCShWBVKSHQQ5u+bvS5JzlBB7KrwzaLvOZASQlggS/lcBiEEoWglQpo+MTNDxKtrfHOb5yyMQgfktZAcFzBpQRBEU5ysqxM2pWBubp6qqkpCYYtsLoeQUFNbjWH6JmGlNZOTUygFs7PzvHvgGPmcr3FprXxhQgmEsChSZ+3Ph2mafgRyJh/0RNPYWEPbskbeemsv3/723+LkJdGoyW233eSbeqXPPDwluHBhiN4Lvdx261YqKiwsy+TVV98ik3GAhRzG+fl5xsZGWbp0KbFozM/NC4atXI9cOo1p2cSra5gSftmgeHUtfgmhQmoKeK6DkAaG5fuOPQQV1TX+WEVhdIEAoRV+ulHwaZA+pBBU1NTRsX4z3WfO8e2n/ztWZh7XsFm2fNUCMyrJ09Ta17y1lEE6SoENlu4VKK3YoAUlDA3ymTRCCJpaWzlrSFAaYVrU1Nfjug6ZTLrA+4Pt4wuVUgTPgSqtTLQgbFRWVtLY2MiZ02dIp1PvOxJVo8nmsmRzWd544w0eeughampq3l8jZZTxTwA3rtZrkPNVYE5iUWI6oAWZVAo7HKGqvhlpR6hpXEp1Y9vCdUGy/gKf8k2FpekEPqV3GR04j5PPs3TVZqrqliDNCFYoQsPSDipqGwLm6ROfdDqFxg/5D0UqMU0bWUKIhRCYpoVlWhiGicCPArRME9MwEUIzPT5MPp+jpXM14coaRChG07KV1DYuYXZ2zk8nCSCKzDpI4MfXUEUwvsVm1yvDcRRnzpyjrq6a2++4lVgszNKlrdxx+61BMQZfM7lwoZ+x0Qk2b9rMps1bCYfjhENVtDS3cfuuO2hubi2aQf3OScbGJqitrWbrto3U1sSpqIggpAbhoVSeilg1FbFaopEqtm7bxrp1awHwlC6aa2fncrz77iHq6iq55dYN9F64wOnTFwL9rXRbaLq7u6mqqqKzs8tnZto3kWsnT+/p0xi2zbrN2whXVhOvbWLzzbfgmlbRtCpQpObnsUIRVq5bT7giypLOLtZv2YYwzEAIKuS4+vMr0SgVaH1BjqQWkFMeGU9TEY3SUBGl2jZZv3o1u3bdjpBmYNr1942UgkRiDs/N0d7VRU19I+FIFMM0i5qmKQxCdphQOIpl2yDAtExCoRC2ZWMKwdTYMLNzc2y/dRdtnV1YkQgr162jY9UaBoeHmZ2dBkAKgRSBXKg837JS1EsXF3EQQtDR0UE4HObQ4UN+ScAPYDV1Hd90a5rlcxLKKONS3OCnQiOEh+8dLH2w/XCMsf4zrNmwic137CG1ZhPRqlqsiiq00kFFFN8HI4VGSj+3zGcIHobwAj+jrxWlxnrpP3WIrs23U7PnS8xPjWObgtraag69+XPmpyfRCKT2SE6PkJgaoWvtVuoaWyA7x2jPUXpPHUZoj3hDO5t27saVIXR8CXmzgq4td9K5cj2kJzl5aC/jk0MM9Zykbf1O4nu+TDqVpLa+CcOAoXPHkPn5gEx7COEWzbNS+j5OGSTfX6KGXGUeBVJYvPPOYe7avYOvfuWz3HrrFmrq6uhYVuczD2mglGR4aIbvPfOPfOW3f5N/9Y3f4cL5AYQwaGyso6q6jj/+479gdGwMtO83lMLi4MEj3HXXdn7/97/C2Pg0Q4Nj/PmfP83w8ARDg1PsvGUbVVUVZLMOK1d2EI2ZCCn9IBKl/WAnDw4eOM7nP/cI0Yowb+8/TCrlAJHLRnP8+HEeeOBBdt+5m+6T3Tiun7BvKJej+97gpjvv544HH6atazmWadHctQopDQQeUmg8z2HkwhmyeYfHvvx1xm6/nerGVirrmnDQWMJnjEL6jEYGNveF8oO+6dvQkJ+fo6/7GLvvfZCv/W//B7m5KZqWdRKqqkcIf68VBSilSE1PMTHQx4477mVpeyf52XF6jh3mhR88i3bzxBtb+MJXfwcRq8KI1yPj1dz/2S+w++47UfMzPPd332VisJ9jB9/mrod/g6f+9b9nbHyUZR2dGJFKXn7mb/ASM4FvX2EIf78YAr8vysWQgUFfeUHIG0hpsGPHTubm5jh58uQv5Z9c9OQG1YPC4fBln3/cDtkto4wbjRtY61WANLAsi8zMCNOjAxg6X3zINJDL+maeUCSCbUqGBvq4eP4UbmqK6cGzuJl5DMPENASTI/3kZkb8aitaYIcjpCYuMjt2EQsXrTwmxsdJJpOEbJtINIJSiqGBPgbPn4JcoljH0nXzTExM4DhZtOeh3DzJmVHmpsYQaIxwJdUNLeRcTSadYHZyFC8zj3KyuLkU06ODeNkUU5Pj5F2XWCxKyA4xNzPJ6Xf3MtpzDFtlAI1ph1BOlqnBczjpeYTWSNPGEIrJoV7cxERR634vTE/PMDIySmVlBTXVNYyOjvPzn7/E2Ngcx4+dZWIigVbQ29tP/0A/4UiExqYGbMtkdHSUl19+nSOHT5LLuWgtipVypqanuDhwEcdVJJNppqZn6T5+lvm5JL29fdi2RW1tLYZhsu/t/ex7+yCTkwkOHzrFfCJNgfF4bppbb70Zx3F55ns/ZWYmw6VGCq012WyOpUuXsGPHDo4dPcbs3BwEKTLZTIZzPeeJxiLUNTSQSad56/VXmBm9SP+powz3nsNQHvOzs8zMJ4nH44RDNmdOdvPGL14kNzvFhWMHyMxOIdG4ShOPxxkfHuLi6WN+GkewP/2ALY+BgQGUUjQ2NhEO25zu7uYnP3wWlZqj99hB5idH/SIAQC6XY6B/gEwqhZPLksulmB0fpbfnHFIr7GgFy5avwFEeibk5BvsukJ6fxc2myaWT9Jw6SXpuhgvnz5PL5YhWVBCvjDM+OszPfvgsR15/EdPNIFBY4Qg6n+Pc8cMkp8eRaGw7hGFIzh47wtRQPzIQKNeuXcPjjz/O3jf3sv+d/SilPhBDE0Kw6/ZdNDY2kkqlsG0/VaQc3FNGGSDalrbdwCdBIKTvn1Lq8pM3NAbKsJChKAgDL5dFKMf3zSj/lAgtDN+cphRSuYFvUqANyy+srly/XS1Rgb9T2FEM00YrDy+XBi+LgVty3yDtRBog/IJgQrlBwA0L91zEwgqBJBqpXLT20EiUaSPsCqRhoJwc5JMI5QY1OQVaGv4ceA5BxXG/fSnRykPq66vMU+y5hFjUJBwJkc3kyGTySMPEcxUqKGheCGCJREyisRAoj0zWI5N1UV7peEpMdxJMo1C1xzf1+o5UTThsEIuFUUqRTGZRnq/BuK4q5kGapmTrtk7+zb/5Aw4cOMhffPO7JBIeV7LmCyFYs2YNTz31FC+++BKvv/5a8fQQDWhpIiMVhCoq8fJ5sqkEJgqUh3KdYIT+3Icr4gjTJJecRzt5TMNAuU5QON031MqC2dbNX2EP+vtJhqKEYlWAJJeax8tnMAwD7TqXFfBXAgwzTKFcnvAK/fJ94sKy/AhYfcnYtcZz8witUEiwQtixKkzbxslmyKfnMFwHGZTVE4bhr63nC4KF58kwzaIfHPzTQx566CE2bdrEd7/7Xfr6+t7HnroyhBA8+OCD3HPPvVTEYpw+c5pvfetbJBKJD9x2GWV83HGDGeUCKb6SbLsQQbgQ6CBKCHiB0BU7hy7+7tLPFn4pFjG4QjL/5QSy1M+5+L6l0YSXoqAPF4ymhSjYhV9dWjzgevt/vSiN6RRX+bdwXemrUIP10muuhoK/lkuKmgtK29HaZcnSRu6971Zuu20zS1pb+dM/+UteffUgSptcuvKFnD8hJKGQjeu6C2XSihdJvEIw68KdAmvC4rkvrKNctJqlc10ylquM99J9s3i/XL4TFnZn6YyU3m/hmst3UdCeEMVarhoQXPo0lLZzmbh2WQ9CIRuBIJfPFc2jH1T7k0ISr4pTWVmJ67qMj49f8zi0Msr4p4Ib7rm/lvHnSgzsStdcz2cUydz1EYdSdqov+8179wsWCKS85tma19v/64WgNIr02te9l+ntvU1zPq291HzKgn9VQFNTI9u3byOVSvOd7zzD/v3HUCWnsCz+beE0DEUulw+Y8KUXqeIIF/nEdCkjvFS4udYIr84g309bl7Z5pdkTl1xzVehCmNO1GI+4bK9cuV1NLpcvvgeCyG74IO5EpRWzs7PMzs4GXS77J8socfHVVAAAIABJREFUAz4EjbKMTza0VkQiJvGqEK7rkUikcfJX0l4/eriWtaOMMsoo42r42MaCf5yJXuHsxA/zsOQPC0IIslmXbNYJPvloMMkrG78XQ3C9OmQZZZRRxgI+MKOUQQWRcnTc9UN/rCl2wBSLkkrBB7lwxWIhZvFgF777cCbhgxufyyijjDIW4wMXHKisrLws9+pXgV+/DvMB8bHuPCULoK/DL3YtHe8Gd6eMMsoo4wbjA2uUpmmiVPkMuzIWsJhhlcaylgbEfGxV6jI+IIJMqjLK+NjghpSwK5tdf/UQesHX+avEwlJfD6V7rwpEZZRRRhkffXxsg3n+SePXyXdEQS8MitBfMR0mgA7yMil0WZbkDX4ymOfibNwFlBWmq6NUmzRNE8MwyOedy1KHDMPANE3/LNOy1aqMXyNuXFH0Mj40lJYRAEBo/2gxsbie7kI1ocUFtG9EB/wDXARIC2GFwQqjrQhY0cte2jCLOX1aa5QwMCuqidQ1+78pMtqPOTvxz0JD2ybYJtoyUPL9ZGhejkvLRnySEQqFeOyxR/jDP/xDGhrqi58XLFRr1qzmG9/4BitWrCjnc5bxa8VHXKO8WtC/Lv5dOCHEv6K0so9goaJNyYnzxQjNK9RDKTYrSs4dpBimqoXECldQ07iUuekJ8slpKCn+fu3zAK+md+hL3i+uFqSEJFLfSiwWZXpkEHJ+XdCFVgvzEJzxWBhbcSwLc3Kl3pVWdRGAFhLPtKlvXUbeVSRGBjC05+uOQlLdtZ6OLbvIYKNE4XQXCUphBMUYZs8dpv/Y24RVHoHAM8Osu+Ue1m7aygv/8DdkBs/4fS2JltUEye3aL9GjS+az+N0VTLm+v+tXnyykABG2WXX/bohFfYEglyU5NsHEhQFyE9OYbnBkuV9iqGRPFcZ+Saiw0ChDEmuoo6KikrGLQ4hcHhGUDbyspn5xzJfu318Oi/ZCSUWly9l2cIxb4YSekm8Xjpa7tPHCsBfG0tnZwX333c+JE93Mzc0ttB7My+TkJDU1NTzxxBP86Z/+Z+bn5y5vt6TfZZTxYeEjzSgX10IpLeNVEiAiJMVjcguEdlF9k8Lv/OsQV5fVdZEYB4c4a1VMf0EIlDCpaW7n9oc+x+G3X+fC0TdL6ry+X9PQYiOk1mDIgEEH6phGoowwq269n1Url/P8d58mMzqAfxCYKkoJ/ogMvyZucI4hBAKELi1/J4rpHIX7EhxjppSLISUKiRep4rZHv8DkbII3/u5phM76WqqUxBqXsGTrbSSJ4EgbI1KBtmxUcg7byyOVg8jOc/7YQcDxD2XGQoXjyHgdeWlScvfi+mgWj50C01c+ESwtNBcs8a/NhKu1RkmBDNu03LINWVNFLpmmwhBUGhaZsSne+fHPGO4+Q8jzz5YsHkMaMIvCviqKdQI8rfEsgzW338LGjZv5zv/333BGJxA6OBGFBaakKDCIEpGi5HG5HrZR2CsF83nhEIGCgHWpwLXwO1UssF/4XpQKlpdybK1RWmEaZrE+sdaanTtvwbJC/OM//iO5XO6y/k1OTnHw4EG++MUvsnnzJt54440rjkMgbkgJvzLKuBo+mowyMPOZdgTDshDSwMk7eE4WrZ3ic6uFxAz512ilcfNZtJvHP+ZLI4SBaVh4SiGNhUN/3VwW5eYXERmNxLBjmJY/JY7novMZKBantsCI4NmV5Kxa3FANwoqilYPULriXP+hXQrHYACANEysaRZoGnuuiHBfXyQcFsQ2EHUZZURKxZpKxVvKRenRkFqlyKCeHUg7BoUwY4TCmbWOYEtfJ42TT4LkIZCAi+BqhYYfwlAatCUWiSGmQz2fR2TRKCLBjuLFaktFGEk4UL1KBnRMYyiWvcvQd3Udfzxk8I0zaruaBL3wVr6KOt575K5geRHp5zPQ0ls6jtYsRimFJwZm3X6P3yH4yE0P4qyDAMIIC5hLLtJBSkstlsCwT0zTJZjOovF9cvqDtGqEwhh1CGJJ8No3KpYtHtP2qIMSCuKalwezQGHufex6RzdC2cS2bdt/K+kcfYGpuFu/iGEJpkAaGZWCFLF8wcT3cbB7tBsXhhUCGQ7hRi0RFiFRliFzMxgzZmBqU44JSKOEXadeGJBQOY5kWynVxcnk8x1nYW7w3s5SAbRlorVAaYtEopiVJp9NkMw5oEQiB/qYNRyyi0YhfdCKTJ5PJ+5q1FNi2jed5OI5bmJliD4QURENhXNdDKb+wfjweZ+vWrfT0nGNoaOiK2rDyFCdOnCCbzbJ16zYOHjxIJpO5fByGxDQthKDszyzjQ8FHjlFqBK4Rpm5JF0tXbKKqtg4hJclEgpGeIwyd78bUeVwjQkvXepas2EisIo7nOUyNjdDffYDs3DhCuJgV9azbdivjMynilZXUNbXgKcX4YC+93e+gs7NIpXGMCHVtK1myagvxyjhCCNKZFGM9Rxns6cbApWXFRpqXb4RYPXkjSvPyjdTVVCJVnpmh8/SfPnLF0yoWsEAFPGGgItV0bN9Nx5r12LEKPCdPbmaaY2+8SGLwLK4R4db7HkHWL0N0bMGLV7HloScIpSexsjO8+9pPSY704RkhWldvYenmncRr67FDIVKpFKM9Jzj7zuuY8xNIoXGBaG0Tm+99lOHpeby8w/K1G7HDEWYnRzn20g+wrBCbdt1LJt6MUd9JVdxj1+d+l6iXxp2b4J1f/AA3PY9KJ9HCIB+qx3ZTZJ0K3OkhGO3B1v6pGgYKQlHW736IipZO0iKE4aY59NKP0BMJtNIQq2H97gcxKuuwIpWEIxEGLvRQ39BIdWUFvacOc3bfKxi5BI4ZobprPau23Uq8oQkhJFPDA5w58BqJgbNY6lpzv3gd3stK5xfQ4JrXFbQXocFwHLyJSbyZeU5OzhCtrGLjzm20rOiib2gcwzRYtmUDSzasJhavRJoGmUSKvpNnGDh0HNJZItEImx+4E7e+ikjnUjIRi20P3UdFMkdUCY68sZfJ3gEU4EVDdGzdyLJ1q4lV+ieujJzv4+z+d3Gm5zD1dWqUODzy6IPEKgymp2e55Zad2LbJ6OgE33/up/T1jvljlIrlXUt58KE7aW9fimGYDA+P8fJLb3H4SDetra08+tjDnDhxgtdf28/i0AeP1tYGHvvMQxx45xgHDxwBDDo6OmhoaOCVV17BcZwrdQ+lFUNDQ4yPj9PZ2UFNTc0VGeWqVavYs2cPuVyO559/nv7+/usYfRllXD8+UoxSadDSpG7ZanY98FnyMszoyDDZbJr6hiV0WZqLF86iUdQsWcHN9zxKwgsxOnSRisoqVmxbTW1dPfte/D46n8A1K2hYsZWGcDW5+SkmZ+aob2pheUsniflZxs69i8AlUtvKzvs/S5IIowN9COVSU99ES/sq+ntOI7SLi4EjbIQM4SFR0sIVIQw0Spgo7Z9Qz1XNPwXbmyYvLFZsvY0tj36FiYlx+ocvEg3ZrF21kcEL55i7eBaFIKclQoYIGTauMMkok7yyiGDiCtM3o5o2W3fdhVy6mv6Lw6RmEjQtaWP7pzcRraqj+/m/wcunUdJARKto2rKbuBHD1i7T0zPMJuZZsmIj1d2HmZmaJqNNsti42HjCIytCSMPDEQZaCyzlYeCitSRPHgsXB5eQziNVhpBy0UL4R2xLE9ewydoVVC5ZQXM8zLH9b5If70NKiWNX0rB+B5GGZVwYHCa+tJ0Nq7Yz2N9HNmyz8o5WBnrOkhzupXHFRu76wu+SD8Xp6+1FC8nqm++hoqmN1/7m/8WbG8HEvcrcBysgBOvWrWPXrl1IeeU4tkQiwbPPPks2m72uPSsAU2siSiM8SKcdxk+fx71lG9XNjbiGwA6HWbvjJnRDFUPDQ+SVYknbMm5euwqp4cxb7xAS4BgCx4CQFLgCHCnIGr6R3g38wa4pWbtrJ1v23MdsKklvXz91NTVs+NTdmJEwB3/0U0zn+jQqITw2b1nFtptWkMspjh8/QcyOc9/9tyKE4C+++V3SqQxNjTX8wb/6Gu0dzZzsPsHcfIZbbt3MurWr+bf/+/+FYXps3baahoYY7+w/5GujgW9Ta5eOzhZ2797KiWMn/MOnpcmGDRsQQjA0NBRo6FeInhaCZDLJubPnuHnHzdTU1DA8PHzZdc1Nzdx5551kMlnefPPN4Nix9xaIyijjevGRYpRaSIxonPaNt5E14xx582cMnj0MboZQrIr6qhigkXaErk27yOoQh956hZGeQ4Ri1Wy5/WHa29dQvWQ5073HQBg4IkQq7fDuS88zOzVO49JObr7v89S2dDJ49ihSaqL1SzFiNfQcOMD5d1/F8FJY4SgVlkAqD6k1wz3H6T3fQ+PyjTS3LmPwzDEuHnoJqR0MlYdAoyn4oa4wuiKvzJkRGlZtYiRr8Pr3/5b0xZOEhcfpeC0yn8ZAIZw0h178IUmzgvWf+T1Wr1zJoRf+HmfkHCGVQaoctvbAzXHgtZ8xkXye5OwMWkvs+iWo3/wqLRtv5eybPyU7cRENuAgyIkreiLL/Fz+ib9+LGE6KmtpqdHKG9Pwsb32/j3x1O3u+WsP0fJL9f/+XhN0Ehpcl5Ob9sxNF0asFSiG1KgZSaeGbsk00KpvhyC9+RCJcy+Y9T9Kwcxd5bfihSFqipImDQWJ4gBd/8BwP7HmEmtYuXvvZj2muiXLLw59FxBvITs2wZOeDZKxKfvr97zF3+m1yhBjesZtN93yapZt30vPmT6hU12aUWmuam5tZv379VYM/pqamMIzrOa2lZF0pGBs1pvLIz07jeC5WRRRlSJxcjn0v/JyJxDxuOkNeCqzGeu78yhdYumkDJw8exk1l2P/DF0hX2Gx77GGaNm9l/49+ihwex9ICw/X83Nm6KjpuvYmzEyPsf+Z5kmMTWJEwmx/7FGs2r8PcfwBncBzrPULLfCjAwXHTPP30M/zixb3U1tXx7/7PP6Br+RKqq2JkMxm2bF1L27I6Xnn5Nb71rb8nm3F4aM8dPPXUF3l4z5388AcvMjY6QGdHK1XxMIaArq6VTExMMjZ+kVUrO8hm5ui90IsQEiEEtbW1eJ7nCyTXMARopUkkE9i2TVW86orXOK5DLpcjl80Wza5lJlnGjcRHi1EisWN11NQ1Mz0xytj5wxi5GQztoubTTM4LDARmKE5tYzOJuWnmhs4SdpO4iTwTF8/S3tVFVV0zU30n0RiYKMYHekhNXCSk8syNDpBJJYhEYygM0A6uk0OjqWteSqKti8zUEJnUHHPJJJb2g3UM7SC1xFB5DBSmdjFVFqHySDwKpFIU/391CO2RSaeoiUZYsWkbw+TITw+RmJ7E8rKEtcIQGrwstpBYyiGEg+1lkG4CS+eRWiE1oDwG+vqobl/NkhXrCVXU4NlRdDiOjIQxwpXF8zP9PEZFYrSPkUOvYCVHsJVDenAcU2tsFEqbeG4GU+cxlYPtprCdFIZygoApvx1YCP4QwX/+2Baid4VQWG4Gy81iaS8IFAl+pBX+8VoaNzULcxM4s2PohiZ0apKc8g9fFuEosqKaqo7VJLRJ7dIu2htrcIUBFbUo06a1cwXn9llc8/SzAPv37+fkyZNczTjpeS7p9OXmvcvWsDh4HXjEKQbdKNf1A3gMCULgOXnGxsap71pGTWMDZixKNmTi2QZ2dQXYJmRdTA9MRyE9haXBcj0sx19nAbhSUNXWQri+luzoIG0b1hBatwZPALZJqDpOTVsr08MT+LFeC9GgV44MFQhhMT42w763jpDJwvj4HN3dp7l5+y1YIYE0NG1tLSjl8frrB5ibzYI2OPzuaR5+eIYtWzbw/edeordvgA0b19HS2oBtGfzLf/kvePGll3nmmX9g+YouRkYnmJmdKzJKy7JRSuE6gXBzjYhdx3H8nErLvOI4zpw5w5/95z/DUx4DAwPvuXZllPF+8ZFjlMKKYpo2s5N9kJ3F1nn//EcNaIErLMxQFGnY5LNTyPw8hnYQCvKJaZQGOxIDYSKkgUSRT8xgqSxSuXhezg/QEX4ygxCaqZF+ek8dYenydXQ9+DAqn2FiZJgz777O9MgFDDyE9pDCQ2qPwoHN/nvPj0AN+MP1lOYylUP3O2+wvX09u3bdjrnzJjKzUwyc7ubgyz9Bzw0jgrYN7SF9Y29g8nQwtE9ctBBgR7nt/j2sv+0+PAzS2Rx5beBV1SJ0HiVMtJYgNFoLJIr01AhWYhTppTG1C1ojhR+F6WmB1C4G/n0N7WJqF0OrQJN8P6K6xtAaU3uB1rn4u4JIIZULKofpZRFeDulmMVw/6EMhkeEoRjSObQg2bVxPzMug0TjCIJuYgFwG6yqm1Evhn+OYuKpG6fsn1fWnHBRTcHzTuxZghUIIKXAcF4XGqohx+8P3s2r7VlzPI5nJkJaafLwSncyhgttIDVIF/xbmrrC1hP8yK2JgGTTU17NsaxxL+b48xxDkZxb8k4X+oDVSGqgrSBF+1KpkbiZFIpFFCBulNOl0HoTEkALDgKrqOPl8juHhCdC+AJNOuySTSRoaa0EYnD/fi2ladHS00NRUR219mNVr2mhpqaG5uYHDRw+TzblobaC1JpvNIqXEsq2SUNsrqJYCQnYIz1Nks7mSVKZi2DOTk5O88eYbKOVH8ZZTRcq40fhIMUogiIrziIbDGNJYdM6tRAf1YPxT4g3T8F0hQcqHZVlBmsFCmodPxIJcxyDktHAQsU88FDIzyYnXn2fozFEi9R1UtSynbslNbIjE2fuT/wmpMQrqSjE0Xwi0kIEGVZJS8h4QGsI6R/7iSd756//I2WWriC1dRe3yrXTt/hwrPJNzL/w1Ip8K7ieuwpwEnpBUtK9m+R17ODU8wbs//z7ZyUGEHWPbI0/R1dXpM7cgjF8g/No4rotwXSx8oqxKiJQopJ4UiJYO0jICTTIYKaXif2nCjb6srp7gUlWh8JcKRACtg0VWCql1oEEVUhYEnqdwXIep8+d49bnvUKESRS1LAHY+iRnM13thx46b+fSeT5fmQSzC9PQ03/zmn5NKXl97xREGw/YE1LY0YZsWibl5HK2o7GyjeesG3jx5jN433yE9O48Tttj55GdYYkWL7RTSdfxA0yD1R7BQrlCD63mQd3n35dcYO3CMkPJXRWgwtIZ0DlP5Or8Ugvb2DqKxWKBtXSSdTpXcL3g+Cvk2wVooJdHaz5HUWuN5DlJKYtEYMIcUEtM0ME0DpTy0VgwMDJLJpFmzppOW1iYOHNxHVbyGrdvWEa+K0d83jOfh30NpBgb62b37DuLx+DXTOizLoqm5iXQ6zczMNFfyPRqGSSzmu2Wy2Sy5XG4RIy2jjA+KjxSjFCi87DyZTJqa5lbseCPZqYsINB5+CLjywMsmyWbTRCursKLV5LMJtLSJ1TYhhCCVnPOJr/+kB0SmwCQXNBkDCUogpETlMkwPnMEd7EOdPcm63Y+xblkT4cpacqmxwLSmUa6D0BrD8H1tC2ysJJDnWtGSApT22VF6aoz01ChO92Eiy07S8tXfp7a1DcwQ5FMIrRDKxXOyYBh4Zsi/m/ZD7hEGkXgdIhRltPcs0+ePE1EZZGMX8aoqPOX3TYig1JwI2HygrRb8ppR2W2tQGqVBmDauNFFIDAjSNERJep0sGl1Lh6xL24LAeymL9/Bz8EAG+aeyaMoVvkYgBUr7/TWEJp+cJzs7SW1VHOE6MD/i5+YhUTKEUDnM68xjnZ+fp3+g/6rBPPNz83ie976IrAIcofGkxqirpm3zBrTjMj5wEaE0dnUlwpCcfPcwXu8gntaYSxqoqK5Cp92iFcJnuBqlPFwBImwXc2PB38fJiUmE61FbU8vQXBLbUaAFjgRXCAylMQtzaRg88eSTrF6zmnQqzZ/9lz/j9OnTi1aqWPBBl4o7gc9ZKzxPMTM9RzgcYeWqdnovDKIR1NRUUl1dzfDwELmcw8R4mpGRMTZvWYOUIb73ved48IEHeOCBe/Bch6GhCV/oCvItT506heu6tLe3s3fv3suijAvFDiorK+no6GRqapLZ2dmSPi5gxYoVfOXLX0aj+fGPf8xbb71VZpJl3FB8JBjlgjyryCWnGbl4njVbbmXdjns4d3QfXi5FTUMz9VUVHNr/FiI9z1B/D2s33UzXhlu4cEJQW9PIspUb8DIJpkYugnYQwQO/EFPnMwpZ9CqBkCZL2ldR17KMwf5eUuksVnUN1fEYmXSSTCaFLJgI0bjZFG4uTUtbB4nRteQSk3jZBLnUHFJfH4FVZohd9+9heC7L6EAPeW3Q3NZK2DYYmpvF81yf2AFSe8yODmDv3MmKm25jROYx07MkpyfQrkMqOY+Xz7OsvZ3xZZ2IfIo1u+6nrqkZ3JxfKEArpBAYwp9jQ2iE9mdAldKdwIyIkyM5N0Nz13qWb7+duYtnMLMJ0lOj4DnFBROBhr9IWAjgCYkdrSQUr8axq5HROK60CNe34GU6kG6ejLQDs7paYLjaZ55+iwqpPHR6nrHug3Ttvo+7H36MC/t+Qi6ToiJew8q1mxg4vp+R86eua68dP36c48ePX9e110JRONAaqzLG0s3rCUmDjvVraFzeQd+ps4yf68VwPbIpX4vbtG0bvTNpRMhm6/13Ea+rRaXHFwQVDdJTZGfmkbbF2p3bGeYwZPJkpmeR2RyJoTHGevvZvGUz9vgsF7vPILWmtqWJFe2d7P3Fy+iZpM9opKQyXklNTQ2WZWEYlzzuxRTJUlFnoYKQkBKt4PTp82SzLo88cj+TE1PMzqb4jc98isqKSl59dR+ZdA4hXc6eucDKlbs43zPCye4e1qxez5atGxgemWJ8bAatC4UBYGhoiP7+ftavX08sFiOVKtF0i2ZvTWdnJw0N9Rw48E7AKC9HVVUV69avw/MUb77x5gde2zLKuBS/dkZZKscKNNJNc+H4foxQBfVta9nSvBKUi0YwceEorrSwvAQXThwgFq+nbvlN1LSvxzQtso7DmXdeJz0xgKkc+P/Ze+8oua47v/Nz73uvclVXVUc0GjkHkkgkQIJREilRIiXNKHmCrbFnPHuOPeOwM/Y56z92vH/srufMeL3ePcf2WVm2RyPJM9ZIstLIlEiRIikGgASRY6OBbnQO1dXVFV+4d/94r0I3GkQgQIKj/uI0urrq1X333fS79xe+P8+lVqngeU5DnShQuLUinl1FAx4SJ5yha9tDtG15BOU6SDNEydGceuclnOIMkWA3bwhFcXaSU0cPsWrzbjY/8nmkO8/UxSOce/tFtPauGejdIBoQUJNhqm0rWXXgAGs8B08pCEUZHbzEmUMvY7iVhurRwGPiwjHOnt1J1z0HWLFlO9HSFG987y+ZGzxLfuQyJw//gp57H+LAb/weQnkUq3B5bJIVMdB1m6oG7brUivM4lXIgkFrUrVr7JxuhkXaJk0cOsS27ik1P/ipmbR41M8Lr/+2r2PkpDOGrSpVyqFQKlEUY7bnI+uldgJJhOjbvYttHnqYcaoN4B5O2YufHP0PIfhwxO8ULL/6carlIrVr2Q3BqFarleZTnoD2FXZ5HeDZRr8rYm8/zTiJN74697N28A89zMITArtSYP3USVxiE9Lt7vS7RK+8yKm8ASlMtVxCZJJs/8ThaQGluntdf/QXjv3ibUL6IoQVzl4Y5c+o0K+7ZSvf6NWg0c6USheERsiWbuo+tAExXMXbqHKc3rqZ9+yY6N60j5cCb//2vmT51nnCpxlvPv8TWjz/O2o8epO+RB3zCBcOgMjJBUWgSovkEpVKZQqHA/Pw8rrs4XlFSKlWxbTcwrvvbwVqtRnG+iPI0WpucOnmBH/3wOR5/Yj+//0++jOcqTAuef/5FXn3lbbSWeK7g2LGzPLB/O8ePnSc/a3Pu3CDTUwUu9g+Sz88vaG/HcTh8+DCf/exn2b59O4cPH272SnC0DIfD7N61m2q1yqFDh64Zb5lIxJHSoFKpNITp9eJgl7GMm4FY1bfqBleFpdHe3u5PrGLxlstotXhpBI4IQyhJLNtNOtOOFJJCfpZybhSvksfEwRYRZCxNqr2XZFsGx3WYnZ6gmhvF9CpIPJQZJZnpoFKu4JVmfBWuMIlmexGeTTk/jYFChxNE091EUu1EI1GqlTKF/Cy1/BiGW8LAX0i08M+orpUiksj4TDi4/omyMB2cjq7VnM3tgC0sZKqTcOdqku0dGKZFYTZHYWIYVZgi6sw3TmkKSU1GEIkMViqLZUBI2ZSnx9GVeWwZwg2naOtbT7ajC9d1mBgZxvNcUmFJbWIQamW/fUMxIl2rcKolvJkRX7W7gHrMr58jDGpWAqutk0gsiikU0qlSmRgG1w5O5GDLMInOXmwjjDN1BcspNwS8JwzMeBvhbBeODOEJC43PBWtoF2lXyefzJNvS4DkUZnMkkylEJEFxegxTaMKdfTj5KVR5HqUldixNoquPTPcKQpZJMZ+jMD2BMzWM6ZawbsTt9TZBA8qUWCs6USETNHhaUS2XceZLRKouVuCIYxsC1RYn1ddDMp3GLpYZHxnBME0SSMqTM4Qd31LsCd+71UvFiLQlMQ2DsJaUJ6fRxQpKQM0QkE7Q1tNJWzaLUopiLkdpcgY3XyTi+id9hKB3xQqi0QiepxgfH18UH+rS29uFlIqRkRnf6QtNe0ecVDLF6OgUtu2B9rDCsGb1CtatX4tlGQwNDXNpYJhi0cHfbyvi8TDdPWnys2VyuTlisSjdPVnKpQqTk4WW06uP3t5e/uAP/pBicZ4/+ZM/uWoNWbduPX/4h3/A0XeO8mdf+zNs276qHyzL4rd/+7f51Kee4ejRo/zrf/2n1zx5LmMZt4q7QlAuRuBT6jPYaP+MJrXCEL4npiCwT/l+mX6YBxpDeJjabVG3ihbx1Czb95lrfqoDpxJX+AueFCzwNl0syv2gBtF4t1XF+25PVa+Jwg/I94SFLfzzhKEVFi6G9p9o4TclCp8gXQclSK0DgSXwhIGLgRvY+izfRcb/CU6UzXv7i+Hie9QhNKhgQ1C/HwQ8jwVMAAAgAElEQVSOVLr+nAv7SUPQG83nr1uCPWEE32i6AdGisqUhp3X9nZZNggjU3v67npA4GNjCQmiNKTSGcjCD570xZp7bB40v2OpakbrjjQQM3TpiwBFgC40rwEJgahoOSVK30vb78ETdacwv0wjKBP99T4AtNW7QNiHtf25osYRWo0VnExy1mm3eOkOablYL36tfp1DaBRRSWAQuQ4uuYdF3FycmaEJKye7de1i/bh0v/OwFcrncgs/Xrl3Lnj17ePnll5menr7q+wDpdIZ/9s/+kLVr1/K1r32Nn/70p8sUdsu47bgrBWUrllUotwfLGRZ+udCq6m/F4o3jzeJm5+O7jrvAKU1K6TtQLUJrDOi1EI/FOfDgAQzD4K233rpK2C5jGbcDd72gXMYyPizwc3ZyV3tcvldBeTfiRgTqMpbxXrCcuPmauN2TbrFq6nbgPTqjvBe8L2vS9ey9dyHucgl0dVTrhx+6nutzGcu4Q1gWlEtCc2cEm49GAPntKW3R33e27gvuesfXpqWe4+rnu73teeu4EVamZSxjGR8+fODhIbeKulPI4vi9W8HV9hyx6PftQIuryW0rdinpcCfqvsSd3xehsNQ+7urnWxZQy1jGLwNa2FHeZ3zIT5S3Z4XUYqnmv/2rb6sX5J3F33TJ8Tf9+ZaxjGW0wg/7/uC8mT+0J0qxxKvbVOAdxfISv4xlLGMZNwcpBR+gnPywnyhvP25/CMXS7hPLzgfvFe/WT8vbkfcTy2O5FR+usddq8b+RDKY3i+Z6+t7K1lcRo7SGHomFWWXuAD6UJ0oBGAHxlxekf7oepG7mTFR1kvDGZxJTmP7nWuOhcHUQyv0e2t00TXbs2IHnepw7f65BwaUAJVsJCwKHFD5s0+yDQSQSYfv27RSLRfr7+4OMM/XUS4Jt27ahlMeFCxc+lMHnCykdPpAKQINIwSe7WGwHrlMVQp3zt0n4UCcD0dLAUC5+Krq/udBCoqUJyvXZrj7oCt0ANAItDZ+WRftJwdUdGG9a+1mdtm3bRqlU4uLFiwv5W26pUD/+dtWqVaxbu454Is7Q4BCnz5wOPKBvf+y90ZZq+5fvpYBYLIbneUvSS90JCEAKyfZ129i4dgP5uTy247xrwwsN8VCMezbvJJvKMDM30xSTGrrSnTy87yCbV29k4+oNpJJtTM5O+YvsLbe4YP269fzB//wHeMrj5IkTKNfz7aGREFY6iU5EENEw2jJxlE9/dyvCssGbIgRaiobQvbtxa7NFCMHu3bv53d/9XaYmp+i/2L8gP6HWmieffJJnn32WkydPMj8/f/urfgfhZ0Qx0UKCFgvYju4E6gxKSphosTATjBYSIknMVAc6noZYGyLWhoylkdEUItqGjCZBCJRrN+rqYrBy/RbW7NjDXG4Kz66976xJ7xc0gpXrNvHIU59ivligkM9/YGq6OuuYbsnUs/R1YFhh9j38GFt33sPE2AiObd+xjXo4HOZzv/o5HnvscY4ceXsRjeItQMDKlSv55//8n3Pw4YdZu2YtpXKJs2fPNjbGt1szeNecKBvH6OtERAskUhtsX7Wd1atWMXh5kGKljNLeVTJN+wUjkMSsOA/s2E9xrsj5y5dwqaLRGEIQt+Ks6VhNQsbpyGS5OH6J4xdO4Agn2GX5CbX8bXVLPUWz7k1aMB+RSJhHH3uUaCzKoUOHqdk2WvjUY127tnH/r3yKkikQroubLzLdf4nBw0cpDo9jebohNK96/rqKIcjC4FPqgZmMs3XfbvJzcwwfO4Xw1JITtq4mk0KitPJTXukb9xwVCJRuDkbfwN6aI1DSSlum9dUD13+tUCpQ+CzouKY/cyOLBb4gFEIQiUR45JFHcF2Xw28dbqr9RLPsY0eP8dhjj/Pss5/mP/7Hr+A4fj7F91NF2Eo+sHCHu3CA15+WIK2UZ4RYtX0X3T29vPPGK+j5KX8HLVo8/rSfjkzX/2ntpw0Ldkx+gm0fcvEjCxHcWuKnrxOYsRRbHnyC+XyOy8feRDpV0BpXmvTseIh9z3yJYigVqDxMQILnc8BGdY2hw89z7LlvYdgF0GBLi45N97H6gce5cOECulxE6Jqf4Q0/wZuUQcNogQg0QkIIPKWQwh+5OhifC+Za66O8ty5qFHjjmiO/rTUgpQEaPGnQvWkbBz/7txgcHmbo8iBSe8gF8VOtbnzNhxHB3Kl7xCuC+biAYND/S2uFUff6FEHWH9H0+dda40mTPfsP0rduPa88/xyFqQkEXouK0p+LnhKY4Qi7n/g4nV1dHD3yDqX5EkJ7gaogELS6Xodg/sn6fK9fE+Rlaqg9G9WjkUAVQbVa5fiJ4xx48AAPP/wwP/7xj3Hdm0tgsJDhSbBx40bWrFnDj3/8Y7797W/7JP7qzrGP3TWCUgS6ngbLxlU70KYQFUJgagtTh5DaRGrpq181gFqw6AshEVpSs21Onz9NuRgIVZqDYHR6hG//9bfpSnTxmY89i1SykQxXNBaVei0kAn/RFRq0BC2uVu91dnaxe/dujh8/zsWL/cEzBWrXWAQrnWLq8gCFoVGyyRTr99zHxu3bePk732fuVD+ysdCKYHIGAk43JwZaowQ4UmC2xdl48AFGxka5dPoMUmuMRhJkHwogyPXoCX9QXbWQLonmhNfUcxiqlrRJzdcL+ot6+wUt3VgYmiK8+Xl9P9tiLWmZ3ATP3NfXx7Zt23j11V8wPT29pPAbujLEwMAA+/fv57nn/geXLl163+1odSEJPk+uv92qc+02FzjR+ASUNHGsGJ1b97Ltvt28dfIsqjiLgfa5fQXUyfldEeTsbMmzKpt3brzyRCBApb+x8tBILQLDhcAWJpFElk0Pf4qJK5e4eOYUnuNiCH+BLebG6X/nDcpWHB2OsWrbXiLJNgbeegVdKRDVVeaGBzCU6y/gAT/wyNAl5kWIWnkeoRR19uV6YgFPB5teGSy29bEqmjsLLaTPO6xBaIGQgUi5jepNzY0vrhpBkCkeT4EWosERbQsLJYxgE7OEiKwLnWBDLQmy9TRGAAhh+n0afLMhQoUM+q6++feTci/g5JUGjrDYvHs/9x14kLfeOcrszBRCKQwpQWu0ln4eWENi2w5vvfk6yUSCSnEeKRbbKAVKEAgf2ah3fdQ2r/X7xxedYsGGLtj+oJXi9OnTjI+Pc/DgQd544w2mpqZurINa6lOHYUja2toAGBi4FJTVspG8A7hrBKUUkmQsidSSYnUeJ5h4gL/rRJCIxLEMk1q1hsTA0CZhGWZ11yqiiSj5fJ6J3AQKDyX8HU7ICJGIJAlh0D/Qj+3aPrGzCAQNgho2M9UcVtjCFf6krts0G5ZEDYaWxKwone1dpJIpSsUio9OjVNyqn08j2BlLKdmwYQOZTJZvfvOb1Gq1Bc/qBoJj8mw/J59/GcMwWLX3Xj76mWfZ8fjDHBoawykUwZAY8SjZzg4/EbPrMj0xSWlmFuF6GEJgRCOYqThGV5ZC1KSaihLp7sCwXaTtYucLaM/P9uEYglAqwYreFURiUfLTM+TGJpA1Z4FAXRp1YaYJh03S6RjFYpl0OsO69WsolcqcP9dPqWS3XK+IRAzWrltNT0831WqV8+f7mc35KZcymTZCYZPczByO47HQSqtpS8WJRiNMTk6hlG9/vP+BBzBNi7daT5OLUCqVOHXqJAcO7Gf79h0MDg6h1NVconcUCzZrvkAikiDbs4pMOkOtViU3PUUlN4F0qwhTEk53ouLd1JIrmA+3IztXE1I2Ie1gF2ZR1ZIvaKwo8Y5u0u3thEMR5vN5pidHsEt5LNyglwQyFMFKZanWXFyl6epdSSKZZHZqgvmJUYT0E3/LztXkQ1kqsRLhrrWY1Ty6UqAyP8fclbPMjAxQEyFUop1spp1oyOT0C9/BzY0SVjVCuobhVtHSwEpmsMIpZvN5xmcPQ7lIKNgouIZFNN2OJ0Mk0hks02R8dIx0e4ZkNMbk8BDu/DSGUHgIXCtGMttF54qVaKWZGLlCKT+F5VWD09h7Q8gK0bOih6mpacrl0g0ITAnCxIzEWbNhI5nODoZGRtBmGCUMNNI/EUqDdGc3jl2jlM+BVmCYtGXbUUiKszNoz58nRihCqr2TYqWKQLB+w0Zi8TjDV4aYHLkCTgURitDVtYLevj4isRjTk+NcuTRArTiHxF/DUtku4rEMIpmlaiWIdfaSLc2j7CqVuVncaiV4BJN0eweeGebMiRMI5VIpzwcaLNEUboZFtmsFGzZsQqEZHr7C+MgQBOn0NJBIZxGmRdWxWbduPclEkqHLg0yODvl5a4NpYBgGudwsJ06c5GMf+yhr1669BUG50FRjSAOlNJ7rBqfNmyzuJnHXCEoLi0d2H2R9z1q+97MfcCU30lAjAcSsMJ986ON0ZDv5/k+/j9SCuBXjo3ufoKOzA8MwqHouvzj6CodPH8amCgh6syt45olnSBgxLNOi/8pFvvPSd7AbqlrRsvuvKzuuhoFgTedqntjzBKt7VoOnERKGcsM8/8YLDOeG8QIHIK01mzdvwnUdBgcHr17QhUAoTdjVJGyF6boUjp5l+oH7yfb2EOrMUioW6Vjbx75f+STRjiwuGikk0nY4//PXOf/qm6iaQ9+WDez71FOU4iFkJklHOs5Hfuc3CXma2tg0r/7FdyjPFVAhk9V77mXrEwcJtadRWmNpGHr7OKd+8hJufh7zhmybHtt3bOEf/ePfYmCgn9Wr+kgkIlhWlLffPsV//upfMT6RQ2vFypWd/Obf+Sy792wHHIQwGB2Z4etf/zbHj53hs7/6FA88sIv/43//f7gyNA5B2wkpkMLj7/7dX6Gvbw1/9Ef/J5WyxgqH2bFzJ/n8LFNT08HEvlpYKqUYGBjAcRzWrlmDaZo4jrqhU2WrWvv6k+/6u1iNwMUg1reF+z/1ReJ9m1BaIFHYxQJHf/A1xs8cIZls47Ev/D3o2oCb6sMOR3j0879NzM6TpMYr3/0m42eOYAvBzic+xdoHn0KYUbTw3doKowMcfe6/Ubh43E83Jk28aJbH//Y/YXquhCssetZvwTAkRnGGQ9/9M6qOx8d+9dcoRttRqS7aom088Xf+MZZbojp6gV989+vU5iYJuVVCwsJxwoR0lZC2iTtFXDuPpWqBmhEcI8b9H/sCPVt3o8NxisU5Xv6zf4M7eRnQVKwUT33pHyA61uFJk0g0zMT4MKm2FMlIhJFzJzj8rf+AUy5gxtNsfeQZNtz/KCqcADTbyrMc//mPGT38PNhljOsIy1Z1nQ5Oq5FImGw2y/bt2zlw4ACZTIZ/+3//WwaHytcfG0C2q5tP/MbfZ/v9D+EojVIuE7k5pBlGCAMlDGLZLn7/f/1jTh55k+/++VfQdhUjnuLL/+ifIQyLr/xf/8pPgo6ge+MO/tG/+CNOnL1AOBZnzbqNeADVIl/5N/+KyQvHefZv/0/c+9BjuIaFxF+0B8+f4Qdf/wqTgwOYlsWXfucf0r1pJ2ZbJ2Y0zhf/3j/Ecio41TI/+MZXOfnmKxhCE0m389v/9H8h2tGLFY0xPzXGV//kj8iNjVDXWykjzMGnnuWJz3yJSCqNp0G5VQ7/7If87L9/C2d+Diue4nO/83t0rN3M5NQ4q9ZtJByJUZrL84Ov/QdOvvYipvb8k6zSuMrhzOnTPP30J+jr6+Ptt95umHBuBK1zUgiBFbIgqPH7kezhrhGUyvPITc5w/7q9tCfaGZ0ZDw5yvpolEU7Q295HuVymXPUTG0fDIUIhk+dffYGQFebA7gMc3P0gl69cYqQwgpYwMzfDz179GR2Rdh6+/yAxI8pViYha3IrFYmEZCI+0leajD3yUnmQ3b771BtO5aTo7Otm3ax8P3vsgP3rlh5TcIkr4Xl69vb0UCvPMzs42brPYWC7wVakhBXaxzOTEOF093USybajLAkNIpq+MMHzoMHOF+SDr/V62P/ogVwYHKfYPMTl4hZe+90N0V4Z9H/8oudkc559/FdNxkcUqTqWKIwXZ9avZ/vRHqNVq/OKHf41TLLNy22b27L2P3MwMAy++jum926IfKIK0xrIEmWyULdYGvvfdHzIxMcXjjx/kwP4HOHrkNM/95GUMU/Kxpx7i4Yfv58UXX+SNN96mvT3NF7/4eb70pWcYvHSZ6clhujofYf26PoaHhhHSRAiJ8jwSiRAbN/YyOTFDpVJGEyEWi9HZ0cHlS5cpl0tLCsl6XWdnZykWi3R1dxEOh3CcG3M2q0+6G7VZXf8KgQrF2LDvUTo338cvXnyeicvnCQtFd88K3Mo8aIVdLvHGCz+mmuxh/YOfYN36DRx64UfI3BARVWNu5BJauWCYCK/GuSOvMz4yRs1RZLr72PPoR9jxyCf4+fAgpp1HaXCNEHaqm77VHUxcucyRF35AaX6OtZ1ptF1hbmKCF7//V6j2Vez99G9QmJrg7IvfR1bymOUcTrkYpADTaO3hoZBaQT3BnfYwAjuiAoTncPqtVzlxfoBN9z9Cx7pNKDOMF5RhixAinmXek7zy4x+w/9HHSPdt5K2ffp9Mexc7dt5LvKuPydFh9h38OJse/SQXL5zn1DuHCYdM7t3/MPs/8Xlenplg6twRDF1717avL65SClKpJFu3bmXv3r1s2bKFtrY2pqamePPNN8nP5Vl8YlkSVph7H/4Iuw8+yhtvHuLtX7xER28fn/r8r2GYlm8iEQIlDYxkBhlJojHw1ZgGVrwNYYRQ0qKx0lhhQulONu3OMnj2JN/6+n+mVq2yfeM6TOViSAMTzas//R/0X7pErWazYdsOnnz6WT75xd/kv/y/f4pbLfLj738HkXyFxz/1K6zeuoP/8f3vMjc8AJ7N1NDFxrpWLc3z7b/4BqF0J5/4/K+TiCcRhkV906cx6Fiziac+9yVmijW+9d/+PZ7WfOTjn+DxZz7HyNAVjr3yAqZhYMRTdK5Zz/T0JN/4T18hkUrz7Bd/g4Mf+yTHDr+BrM0HSf18T9TJqSlcx6Wrqwshha9LvkHUN7lCSOLxOKtWrcLzPAqFwo0X8h5w1whKjWZ0dBThCboyXViXzrNl02ayHRnefvtt2pPttMXbGLh4iZpTAzQ1u8Jbx9/ixOApTGHR097F7nvvI5tIMzo/htKKkl3i4kg/c5E57r9vHyZGQ/t/rRPk1X9LNq3cxPqedRw9fJR3Th7FEy4j4yOkw2nWbVlLR6KDcr4EAkKhEJl0BtuuNYzWYol56NvjA5uF0lQrVYRpIMK+smrs8iD9I0MIBNI0cEzJnFSs+sIXSK3pY65/EHu2QKkwjzHfhVGpYefmmDp9HrPmENIC09M4lmDd3vsopiL87C9+RL7/MmEFw+NjdPX10nvfdi6+dhhVdgLb1WIsbhEFuLzx+iG+852/RiuLQmGOvXv30tnVhiEFbW1x7rtvE7ncDN/8xreZmiyDtunq7OLZZ59k+/ZNDA1dwnWrbNu2kTffeIOPP/UkmWyGH/zgRySTETo707z+2hF0YKRPJpPEYjFsu/auYR9CQLVapVAoEA6HfUeXm0QikSAajV6jfEGtVqNQKFz3lKoRaCNEKNPFnAMDZ05SHDpNVNeYOGsQUzVMNLpWYXrgFOXIGH1b7yPsdjF76RRi9AzCs7Hq+VGV5K1XXqIkwphCgBlhdGSY6Jrt7Fi1CR3PoGt5tAQXSVWEoVTiue/8BcboKaRymUP5As5zmDxfwOjKY9SKeHOTTJ99G1maIaRsTFRj++j/X58rzS1K3TQhAEPZ5K+cY06O0bVmPW3rtwW5Yv3PlTBwNYyNDjN18hC5jWswkmkGjh6iZ91mtu7ag5XMINMe6+9/nLGS4uWXX8advIwUmjnH4Eu/+Vus3LaPyYEz6MCk8W7iLZNJ89hjj/H444+zcuVKarUax44d48///M85e/Ys5XK50acL+21huRqBEYmz9r59zJdKfO8vv05p+AJHZZi+NevY/fBHUNrzhYIUuMJASQOERGkwhIEWBp5uaUUBnha4SMYmx/nmV/8/coMXMITHqZ+DUC4mmv/6Z/8J2zdiYkYiTMzMsum+B+jdtJ1oW5ZapcDlM8exrQR7HzgA69YzdO4kE+eOYeIhlOvbTZVG21X6Tx7FSLTx8MefIRbpQGnf3m1IgRAG9+w/SCzTzjf+8t9z7JWfgIbSXI5/+C/+N7bsup9jb7wa1FtQLJf5wV/9JZfPnADDYvPOPWxdv4pIKoM7VURpFdhTNcXiPJVqhXA4fJ1euxpSStasWcNjjz3G2rVr2bB+A6+//jr9/f03Vc6t4u4RlEIzVy4wW8jT2d5JXMR4cNMBelb2MjMwSzIRBwFjU6O42sUTmqJTZbI0Q1VUsbTLXDWPkBIz2N0hNAqNIxSe9OMtr17Y6g4mdYN7fe9Vh0AKSXe2m7AMs3XjFnrWdOPiIrUgHclgGhbpeBuDs4Fji9J4yluoxmOhz1v9TFs33hsITCEDtyF/KsWiMTbu3MLKbZuR8SiuZeAmIhjRMDISQhMk89VgKN1ICBz2wFRgBkZ2FbFI9XZDLMKBjz2B+YiLqQUVA+LZLG6phIyEURWnkRy4rua42mNTgxYoRzM2kkN5EdAWhbkanguRkImUkIhHyKTjjI5MMDtTQqsIaIOBiyMopens7OTixfPMzZVZtbqH3t40H//Eg2Q7Mpw8/TbZ9na0FFy+MgzC9BcgpdBKNTx/rwfDMNG66jsj1L0pbmB+mqbJF77wRQ4efKjRFotx8uQJvvofv0qx9O7p5QQa7dpMjAzTtfNBnvjsr5M7/w6V0YvkRwcpTl5Bag8DDZ6D6dlI5WKiMJWN6VUaCbPBP5l1dXaxZtdDpFesRUcS2GYMo2stnlvAlaHA4cO3sEutKFw+hxo9R8aZ8wVki7OFrSCkylhaYWrPtzfqmr/ABi4aTQQbS11/Mn/e1redEk1IOVjUMHFaTgEiSGitkbhIZx5UCdOeJ+RWCdsFTLfiJyI3QpjpbmhbQVxE+OhnvkTIKYNQOOE2bCRGMoM2wuhG3XyBvth7W2vYt3cfv/Zrv4Zpmrz++us899xz9Pf3U61WW+Zns57Np6z3X/3JJaFYimi2i9nJMUoTV4i4VRQuk4MX0Q8+ghBNL2TdiNX2Q8xUo9wWZx3tn5BMrZi6dJ7q9BViqoTQwSokBEKa9K1Zw66HHye7aj3ReBJCMTpXrkFU5wmFY9haE8LDUw5SeYQAS3sYykZq3ztZSOmXpz0MDZZykS0TQosgUXrIpGtlH6X5efJXLhJyykghyA8NUC7M0d7RiRmJglKB+WCOuZHLxLwqnvYo5acJh9ZjhMK4LW0qhEAI6XsL3wK01qRSKbZs3kImm8F2bC5cuEC16tt21R22U95VgrLqVpmcmaSru4ueVDfZZBbhwMa+DQgT7FqVydykH4sofLIBnxhAo1B4we6lHkpAw4a1eKVbOBV0YyAvvNZfD/wOCIfDuMplYOQSo8UxvCCI2tAGDg6j+TGUUGgNtmOTy+Xo6urCNE1qtRq6pRfrd5GA0H54hycFkXgM13WxKzVqQrN9333c+4knmBufYrD/IuVaFdGZoS/b2Sirvkgt5lxoJTCQhkkoFGK+VGL49DlCZV8gusAkGq9cQVbtBUtiXUhes7+UplKpgpYIYfjexUG7CzQhyyIUClGt1IKNgu8xaNs2GkUmk6FQKDE6Msbq1X1s27aBtrY4jl1i8+bVdHR0USqVGB+f8p0kEMzPz1MpV4jF4piGee2kwNrfZCSTCXK53E058mitUUpx7NhR8vlZGlucRW0xMTmJ/S7q3MA/2O8Dr8qlQy8ilMeaTVvYsmsfkQcfZWZmknd+9F+ZPneEiKo1VfNaNbyaW52sPCROooP7P/UlUn0bGTpzgunBASrapPu+OJl0CGSrP6K/4DqleSzPxtR14Vf/3Ff9G1rg++Pqxlhq0mEEi3+LPV+LFjNC/Y/63z49QePk2To2dct7aI2oe+0qjVaeP06kBAlSQnFqhCsnDxNxioBGSZMJ5VGbGkI6rTbFej2v6k2GR4Y5deoUW7duZePGTbiuS3t7O6dPnWZ6ZhoVbLxYVFrr73rdpWlihaJ4xVzgTKSRQuDYNk0H5Pq647/0Q7HlVSXWnWb851eU52ZRto2hm1t1hUH36g38+j/4p8TaMrzz9iEunDyGDsV54PE4bbFQo7BmSEldQAft2+hHgdA66C4drD1NU1N9HZSGRVsmi1IK5bm+PkCDcl0cxyYajWJI0xfKQqJcD6E8JBovGG9CCoT0PWxbOyWVShKJhAPnxutvdBfjzJmz/Mmf/gkrVqzgy1/+Mp///Oe5cKGfM2dO//I48yih8fCYmJ1g0/qN3LN5J6VKidHxUTau3YBj28wV5sjPz6KMQO0mwFOeH9/japT2PVaFkI34q3rYSXNILBaczaFSJ0cPhlXjFKi0x3xpHttzuDx8mSOXj+FKF4IlXAuNJz209L/nui7Dw8Ns2rSJjo6OhnpnKXGNlDjCxcokWbGqj2qpRGk2jzINendsYaRS5Eff+CY6P48Qguy9W3lg374lD0eNZ2hZuDSgHBu7XMGJGZw9fAQxNYfl+adZKQUGmlgQQqW1pqenh6eeeopIJMKVK8O88MLzDVYhwLcv4LuOt7ZXPUZPa4XnubiuRzKVREqJqzVSKhKJKIYhmcsXqFQczp8bYOfOzRw4cD/5fI6jR9/hnp1bSGeyTE/nyOXm8BtWUC6XGRsfo6OjnVg8RrFUXPJkqdFk27Mkk0nGxkabAc43OJmUUhw5coS33nrrmvNZyMXhMFf3Rf2VVB7MTXD6Z9/j2CthRGYla3c/xN6PfZJNDzzKWP8pwnVBqf3NUz1wvCFsAS0k8d51ZNZt46XX3+bMc/8VqWyUGadt3b3ITHfLM9bNCgqpXZ99peUkCfUQg2bwU3B1EIZy9ZP4D976fmuYQP1d3fL5Et9f8vqgrECguE4N7daozc9y+tDPCc9PYGiFQiC0IoxDWNstQsseLGUAACAASURBVF8vVTRCCM6ePcsf//Efs3btWj760Y+yf/9+Hn30UcbGxjh06BCvvPIKQ0NDeN7CzdTVPaux7Rrl0jyJcARpWmjh91E0lmhsFlvPoIZhIgwT5daIxZJEEylKDdt6ywjRCu3WT+DNmGRPSNZu2UnXus385Te/zov//S/AtYlke9i+537SsS6CRa5RnEb7xCP1+XgteaSbG6lGC2pwXZf5+XlWrjIxw1GQfmiKEQ4TjkTIzUz6TFh14booRMlvu6XnRk9PD4ZhMDo6ekuMWY5jMztrMz8/z4njJ9i8eTMrVvRw5szpmy7rZnEXcb36gnIqP4EAtm3ZzlhunAuXLpBMJenJ9jA2PoajHEA3uf9aAvANIQIVQjAUhfI9KKXhBzj7+h+kYSClbKoFgn8126ZULJFuy9CezhKxQr4bstZcGfO9Wjdt3ESsLY4X0nhhRSQVpqOnHdMym6MNuHDhAoY02LJly1VPKvAXKSMUwkzGSazsYeujD5Jsz3Dl4iWq0zk/fsyQaKXICosOLFYk2ti9axdWOHzVQHRcl6pt05bNEksmkabZOFWLmsuV/oskk0l27byHbDhKJyYdRpi+TDvdHZ1BPKXfju3t7Tz99NM888wzPPjgASzTWthTAVFA63RXWuPpxl6WfL7A6OgEa1b3sfOerYTDFolkmL37duHYDv0XL+O5kosDVzAtwY6dWzl69Bgnjp9lZe8Kele0c2VoknKpFixAGsdxOHr0KMlkkpUrV14lJBtkCkG7SykZGLiE67jB59cfha3tKqVEGkv/XM/Tzhc6gVeetOju7KAjYZH18kRn+pk+9Tql4jzCiuJoE+0rX0ErXLuKMCNkevqQ4SjSkP7pBHCMEJ7WhN0K7bJM1rDZunEtq9esDuIq6/f3e0JqhdYeWiiUqPdOfQPov6jWypQrVaLJFLFUBmGY/j2DOL2GoCaIhQ1oI/05JhrXISTSMDAM0fCElVJgmhJDNgkS/FXaP0011vjghCmQlPI5ZieH6ezpYcOaPjKGQ5YSHSHN+t4uOtNppG7y0Fxv/2PbNufPn+erX/0qf/RH/5Kvfe1rjI9P8Nhjj/F7v/d7rOhZcf1xgcauzJMbvUxXbx8bdtyHEY6R7Oxm2727MEwrECoKz3WoFIusWLmSZHsHMhxh7dbtxDKdfhhZS511oH6tz1X/PR2MVYmSBlKA5TlkhEfCgF337qSrd0VjY6rwtVJoRaVUxAyF6OlbhRWJYVkhpDTx42/9MW1ZFoZp+H0oBKZpEbYsv49cm3NnTxCOx9i25wGMSAwZjXLfA/uJtaUZunKFWqXSOPP6a5n056jWAYVfMEZa5lvICnHPPfdQrVa5MnTlPcU1K6UoV8oYhnHLqtybxQd+omzaFQRIQa6cp1gt05Xu4srkIFcmhynUCnREOhidHscRLQw8wWTRSoEw8ITyg/+FP+kiMsyuLbtYkeklYcTIRjOkZJJn9n+SiqxybvAcF4YuNCZwySlzfqifJw48zqcf/TRT+SlG82McOvEmQ1ODnOw/xe5N9/H51K8wPjOBkNDV3kFF1fjBCz+i6taoM8oMDAwwMTnBIw8/wmuvvUa5VGosOIb26eb69txDz7o1pJJJQqkE0wNDnPrZKxjlGlE0k5eH2PiRgxz84mfIj03SuaKHxLo+FAtVclKDmi8zOzrOhn272P/rv0J1ehZ3epbTL7+OWa1w6chxurZuZN+TT9C9ZjW12XmscIhVvb0MnjvHOz/8KYbbEsBMU53TyrLRID8QorGDru9LBQKtBWhJoVDhzTeOc8899/D3f/dvcfJEP5lskj17d/Hmm4c5f/4yQoS5dGmU/FyJdFsbx46fZWRokvxckY6uDgYvj+C6HiAbp8p33jnKk08+yd69+zhy5MjCsRQMjGQywY4dO8jlcpw5c7phB34fvMhba4MvQiRE4uz4yKex2nuYmhim7Go6V28iFYlwpv8sIdU8HUmvRmH4Ip76KPuf/lXy2zcTsuc5/dqLOCOXKY1foZibYceBR8imQkgEvRt34EVjiEqVhhEhWLAMoXyhokDo+r64eZIwpMatFBkfOMuOBw6y73O/hT01hD11hTNvvIQqFXxblgahFSZgEgg14atNBQY2go61G1mz50GqZpLsuh2YsTa2P/kZjLkxqrMTjB456xNh4CG0XzdL+E5KBi4WLqayEYVJjv/sRzz4ub/HwU//GmPbdiLsMtFklr4VPZx46a859+Y0htcSa30DsG2bwcHLjIwM8/Of/5y+vj5Wr15NuVJ5954M5LpbKXPu8Ovcf/8BPv9bv8ulM/vJdK9k7dad/ibE8zDR1OYLnD1+jMc+9hS/+vd/n8LMBGu33YsRDjU2EEoE7SkVplC+gNEtFkwhQHuMDw1QnJvliU8+S09PN57WbN99P/F4Crc4i8TnsUaA1B7nTx7loY9/mk994dfZcc9OnGKeN1/8CVf6z2PJEDv3P8jGe3eBFaV91RrC0Rgf+9JvYs/nmBke5NUXfsrxN37BY098jMeffoaOjgxKw45d+/BK85w8/BrKLiPDycDmHIh+pRDCaIytxmlfA0LQ0dnBjh07GBwc5PLg5RvvtACtZhYhBI7joJTCMN6fs94HzvUqGv/5UEqRjKeoOlXePvcWuWIeKxLGdmyO9L/DvF0EoWlv68CTiguD5yk5FYSAVDJFNBrl3OVz5EqzWMJky7qtrOrsIx6LU6lWqTo1YvEo0USMmdkZJmYmgp2x7/gzMzVDpVIlGUsQiUWxPZvLI5eouTUmJsfRnqarq5ve7hVkkm3YNZtzF88zPDmCrZyGQca2bdLpNI888gjnz59nbHS08cCRdIpUOo1j+3bBmelpjrz+Bkd/8hLexAwxTyC1ZmomhwxZrOzro2dlL5VahTde/QVRT5O7NETxyhhWcBr2XJexqUkQgngyQbqtDUtIRs9fRFVt7EqV0ZFhQrEYPav66OpbSawtRW5mhgsnTlEen8IMbCaxWIyVK1cyOzvLwMAAx48fC1RT/qmgLZVgxYpuTp7s58qVCYSQRKIWa9eu49y5i/T3D+F5MDQ4xNzcDOvWrWHzlo0k21K8/vpb/MU3v8fsbAWNiW07pNNJcrkiP3v+VQqFGqlUG0KaPPfcKwE5gQw0B1CpVFm5spc9e/Zw9OjRq9zDhfBJ0Z988kleeunnvPbaa763H+9PvFWjHtTpKgSutDDaOkivXEv3qjV0rugDT3H8tZe4dOgl35kl8JXXQH42R75YIZ5MkEwmSCcTjA9epDwzjuu4zM4VyHT1sGrNWlLZds6dPcvgudPE7ALDpw5jVQsI4dOrda5YxfzIJWYG+wm1kJOLlv+V5zI4MoYAkm1pUsk4hnIZHehH1SqBbUsgTItsZzfYNUZOvImolZGBO7eWBumelay77wFi6XY8T2EX5kiGBW1tCYRWDPVfZFV3J3NTY0wNnKGrPYshFGNn3iEaCZNNp5g8f4zK9BiFqXGGxybItHewcu162ntWIEMRhgcvM3DybexCzo/Tu8EubV1oPc+jVqsxOTnJ+fPnqVavIyjr/2uYnpygUCqzZv16Vq9bh1Kaw2+8jlcq0H/0TfKTo+C5jIyNk8m2s27TJjo62nnr8CHmpscpTo5y5p1DeLUyAk00kWR1Xx/nTx3jysVzSBV4yQdq03x+lpHxCVatWcP6TVvo6OrinbffZuzyJZzCDCcPvYZbKlBXwU5PTzM1kyOdbiObzZJMxLky0M/0+CiGMNhy3y627dpNIp2mVCoxP5sjFY+TbUuB53LuxHFKhXkGBwfJdnaxees2enr7mBgf4/vf+C+cO/ImhmdjSIOVfX3Y5RInD72GZ9eQUtDZ3UNEao69+RrUyhhSYhiShx56iP379/Pd736Xc+fOLXCgMk0TwzAwDOOajnqtc1drTXd3NwcPHmR+fp6ZmZlGn94piFV9q279DAy0t7dTq9UoFt/d+++GK4QgZISQQmC7NZQSWKaFKSQ1z8YLFpSQEUYKiePaeNpDIDANE1Oa2J6Dp1ykkISMMCYB4XPDUK5QAmzl4qiFAl5ogSEMQoYFQuChsN0aGo3UkpC0SIQTRMNRPNejZJepOGUc7SziSxX09a3k93/v9zlx4gTf+qtvNTpSWQZYZlM9F6hrTFdj6qbVx5ECL2xhpeKYpkm1WEKVq4RME+0qhOMuiAj1BGCaYAUEZUojag4EO1VPghe2CKUSiHAIVa3hlSqIqo3hNX0IpZSEw2FfAKvFA1BjGIJQOIRju0H4i0BKQTgcDjZNvv1WaI1hQjqTIJGK4Dqa6ek81arrnxADxZvvKSupVm3Aj0M1TYOq7eJ5i20Zgu3bt/PlL/8dXnrpJX7yk58ssC9prfnCF77Ali1b+MpXvsLk5ORNjsDbh6btW6KMMCKWQsbaMKTEKRfxirMYbi3gBq3biprCVYYiICUGGl2rIj3bD8wxQhjxNGYig3JqVAo5DO0RkgKvVsFSjk8/JiQiHEd4LsqxqWfxWMq27WGizTBYId8yqlywqw3bZv05RCgCQqJrFYRqanc0AgwLFYpS94NttXxq5aEcF8u0UCi042CYJkgDZddAGkgrhHKq4PljypEWRJOEU1m0NFHlAl5pDmmX/VPpNQ1wdwb1vlFmmFS2EysWp1LIUS3OEzIN3FoV7dWZkQzMRBvJ9k5cp0ohN42JRgqNXa02s4wYJqFwGM9xcZ1Wu6toqEuVNIimM0TbMqhajbncDIZWGFLg1Cpo5QXxioH/rzQxQ+FALanw7Bra9eslQxbSsnx7b0PVG3DyeA6uXQUNSphYiSSJ9k6kEMzPzlKbz/mCXPu0dqbl38OpVtDaawg9KX3SxpW9vaTTaQzD4OmnnyYcDvPv/t2/Y3x8HCEEsVicdFsb8USccCgMAsrlCkNDg9RqtXfd2HZ3d/M7v/M7rF69Gtd1efHFl/jud78TrBe3f1zcdYISfGEFdTtLU3BomvrG5jU0TnHopgNOndF3ERFda0nBV5bYvejWK1vLD/gMaXrM1N3AlyxHSNrbs2itmZ2dbRiwFU2Hm+a00D6fZUs9Fb6Kxmtc0wwrWSotV3Nhbr7RFEfBRArK002TLcYSZb07rjdkWioQ/OhgarY8wYLyWrpwiXIWwjRNMpkMrusyOzvLAoYeDZlsFiFgdjbPB5kVPagOEGQFERIvcJ0R6CBUo9VLtP4dQasCq369bFj4BJ7wU1nVGWTr46E13ZUO7rvYC3Xpei6siWSRCg0a96ZxVl74GYvKEFd92kSzjvXeEwve99tMoILn1EGdDO2HJbzbs9xJNIRlo2+aHLutbdzk9hWNFmntB2j1wbn62Wl5X7WUd3VZrfde2Eetn9XXDCWWmr2Cd6t//QqJWlTH1n6ua9J8p6S2thQPP/ww6XQa0zQxTZNisciF8xcYnxhHSklvby/d3d0kk6lG0oKRkWGOvnOUcrnccBq8qg8CVXgmnaGrq4u2tjYmpyabLGjaX3FupwbpA7dRLoWFQmdp/pUlc1CKRdeKwAGhZeG4+fsvLK9ujL+RWaq1YmZmpmGcr/ebLyoCJ6TGIr9Y5InA/nDjndSYHks1TfDTKO+Wt0c3M/iaE1Zcg8qgfl1dcN8IXNdlamqK5pml3n5+v8zOzvpk2x+wkIRmaxlBkL/1rlfXv6O5etFslifQAUMOtG61lrrW4MbaQNBwJ3qXa+qL+dJLLTdQxlL3bf3dCiMQjHcT6n2zILp0iTClentez9WkVchcjcBuHbw2qDv51JMGLF3etfqo+fnS91l4nT/GjHcVNld/LxSyUEoTCoUwDAPL8ke8UopUKsW27dtIZ9JYlkVfXx+JRIJSqYznuQ0Tnuu5Da/yazn9aA35uTy52dlGPerEInfCxHJXCsq/SdDXcCSpv3/1NqB1kH8Qe+br4c6pu2401Vfj+gV1WfjaT+H1y4C7cYz8cuH9sX0HZ8X3cK+bnV+3ci9f26aIxWLEYjEMw8RzXayQRTQaI5PJkM1kSaVSJJIJCoUCrutSqXgopahWa3ie1xCSS3EuN9T9DZIB0fgbrnW0em/4JRCUd4nQCQ6hunnw8d++qlpi0e+/abhL+mMZ74rlXrrb8OFYF3TL6a5QKFCpVDAMk5gXJR5P0N7eTnJtkra2NnK5HKOjo+RyOWzbplKpksvNLIixfH891a+N9ywo3+88fx9m3HhL3SWjYxnLWMZdhA/HuiCEIJ/Pc+rUKbTWRCIRslmf7WfFih62bNmCYRicPHmSkydOMjY+Rq1Ww3M9CvMFpJSNU+XdgvcsKGs1G9d1rn/hDcA0TZ866RZYG66Nu6SxF3oy3EEF5t2Ou6Q/lvGuWO6lZdwyBFQqFWpVP1rANE0KhQJKKVauXEk6nWZubo6jR49y4cIF8nN5PNdr+pJci5ryA8QtC8q6I0okHKaKn63hvTycEIJMJkOlUrmtHrTLWMYylrGM9w91+6KrXNA0nHSEEI2EzZOTkwwMDJCbzfmUeHe5ZvKWaQ1EndcT36DaSsH0nspcxjKWsYxlfOhRlxHge73mcjnys3k8z6NYLFIqlRpCsh7Gd7fqMt6z6nWhcHvvu4JlYbmMZSxjGX8z0Lqee56Hp3yGL8dxfDskwYHrLj9R/hJ4vS7jxhGQAzSCMUUj9+DdutP74HF1APa1r9PNdGu6EQ13h2q1cOG5k/daxjKuByGETyWpF4a/3YlQjjuBXypBWec1MUN+yL9r17kvW/lrfAgDDMvwjcxuKyHAwutaS1/42Y0uTFdfX2f8uJlydEtguWgQWt3c4qiFJpVNkMzGCJIaUZguMT9bQraEkrfI0eY79WwuCx7iem21GC1cJUsy9dzwk2BYBm2dKeyazXyuRJ21afGtbzUMoh6xFW0Lk0wlmJnM4dV0UyA17qNBQltHnGgq7FMpKsn02AxOWd2wAGut5/XqrNHIEHT0dFCpVinMzIN3bWF5YyOleZVGY4UNMh1pisUi5UI1YLNaFsa/9GgZTH4cpG4QATSzohDk72z5XN+Z+MfbhbsozdadRT3rhRGW7HpwJ9vu3YKWHkst5Fp4rFjTzcMfeZCu3o76u+9W+m2pYyszzc2UqFGEIiarN6wi3dkWMBQF2R1usgJdvR1s3b2JHfs3sffxe+he04kW3lUVWrwkipb6C73Ukqlbft9EvW6haTUQilrsefheNuxYh7BEg23pdhoKtIDuNR3sfuheIm1hWhmWGnGygDQEXas72bx3A9sObGTPI/cQz0bQQt304nC9q+sC3Iob7HtkN+t3rEGY1/6W5kZ6RC/4rVFE28LsOXgvK9Z3+hl7lrEMFjKDSSkbQrKJ5liqM2c1MhLdxfilEZQCiZIe3es66NnYTsmdA3Rw+oJ6ByqtkBHo2ZIm3G6QK81Q70Zfa1bP/qaCDOJ+6Q015YKd9bWWIE3A5Br8JQJeV58gKyitrqy76psL31GAS7jN5J4D2+jZ0IUnPZRQjfRSN9xGWjB4/jIv//QXnDh2Ei0chKFQQi1IBk39MVvq0JowWgndyH3oP6nP9drg7tVywXM0M7GrxnVKLGrKm4DG97grFApUymU/FdSCE2pdmKnGzy2JTaEh5CEjgKFQwmuc7HXg6KbRuK6i/9QlXvnJa1w4cwFhaDC9axTaOjYClk/NAm7fxo+uX9+a/jg4dUqFGRUYIRYIssX0eIJWfUq9nxa1hxZ16mSf0Fx4aFNhREBYS282l/HLjIBIr2G2qafjCxRPi/IAfxjwS6N6VUJjRQ02bltLsVxkdGQctOGvaME26P9v70ya40iyO/9zjy0Tmdg3Yie47+yq6to0rZE0Nj2jMVN/Bt30BXSX6aJvIF30CXQZ3UY2ktkcNNNSVXd1bSzuLJAAiR1IIIFELhHhyxwiMwGwSBZYhIpZaP+ZgQBzifDY/O/+3vP3ssw5mt7hPgZGe3ny8Al7O1UCm0NKkZkjQ0u+EBFGASpOqVVjTJIlS7cehLkQpRQqsc301xYrDEHkIT1JUleZrV4YhA/5Yp4gDEhTRX2vgUkt0mZ13WQgkKEgSRJy+ZAwClHK0NhrYNLsJvNCgYw8vIJABQ2IEoJugdAClEQ3OHo/ZgVpbNCpIu5LQBwcRxkELYEzIC1BziNfiABL0lDEtTQrUdLaHAbrG/LdEX7oYRU09mJ0YsB6WAzSE/i5rApMEIVEuRCVamqVBih5YCBzRDxDkJMoGfPFF59jY8gGrofbhW+IugLCKAABSSMhrWmM4sj7bAmHEQrrK/IDIaEMSWNFYy8Gk6XQx4JuaNIkJa2pAwK3T5aw2mCkJuoKyeVDLBDXY5JqisRvqm+mmEYY/JwgX8jh+ZIkUcTVBFTTrNUUvZbYGgzSgyAKEEDa0FiTVa/BN+QKEVEuQGtFo9pANTTS+oDIij5LQ64YEOZCEtUAT2Gl2h8Y4Ayvjibi+bthPxWdbOdwpZ30vLVuvpMDOX8vhNI2xWpkYoiBkV7u3X5ItVzHszn2vT5Ns1KgOXtxFqUUT79dwtMhQkgMmnxPxKUb5zk1NYofephUsb6yxTe/u0OjklDoyfP+x++xUdrk9u8egMlSIoddPu9+eIMg8PnNv35JHMf4eZ/L75xncmYy25bSbKxscut3d6nvKISwjE6OcOHmGZaWlpicnqRQ7CJJEh7fnefb20/AekydmeLCjTPYnCYqeJw+P8H0+DTSeGyvV/j811+jUn20kZuVSCTCikysW1O6g/YUkfkyhyf7ufKzi/T2FwFLXEt4dPcJTx+uYNKskw67fC6/c4nxmVN4vgQrWFva5PaX96iXY8DSPzrIzz66Snm3zMBAP0EUopXm2eNFHn71GBWbowlX89ks9nbx4X9+H5mzKKNZW9jk/hePMM3ZvsXghTB76TRnLp/GD308T5LUU+buzDN3b36/XMsREAhkILh4/RzDA6cIvYC4nvDwmzkWHi0ilMisGRY86yPxmlVivjtdNlIzeXacC9fP0lXMI4C9SpV7Xz5i7el6cwAlsNIwND7AxRtn6BvsQ0pJmijWnm5w67Nv0M+VhrVNMRyfHePKtStsrW9x5/O7xA2Fn5OcvX6W02enCaMAazTl0g63PrtDZaOOEB7Ws0yfn+TS9bPk8jlSFbNZXkcG4sAhOKl0HLQ0NV0dzTWVnicpFvsYGBhAConvefT39aOUplrdI03TdgRsJ3LCTa9tQxR+TjB5Zox6UmNxbgXRnPkYsV+6yAhB/2gPp6aGWV3coLZTx7PNeWGgufL+BcYuDrK+vcztu1+zWlpm9Gw/Z6+fRgRQS2o0RI2J88Pku8PMZCkNXf0Rg1O9lOMtEhVDaLj2/kWmr4ywsZNta3H9KaNnBrn0zlmCnMQIhV+wFE/5nLs5zcbuCg/m7pN6Vc5emybfF2IxbG9vMz8/z7OlRZI0ZXt7m7nHc8w9mWNldfk1sxw1zX5tf15zRmyBZh0Ei8bvgksfniM/GPLgyT0efHuPNGxw5cPzDIz3YqTC+prpKxPMXp+g3Njg7oO7zK/NMXK2n7M3p7C+yWqLhpZoxGfk3AAbe6s8eHiHnUaJ8+/OMnF+DOPtl2D63tZbSxzHLDyd5+nKAlG/R9AtMpOozWZWVhh6Rgucf2eWSrrF3Xt3+Ob2LTa21vFy+77Mo9C6u4LIY3Cij2fLC9x/fBdyKZfeP0PvSIF978tzx9A0S2WG0KxMW/dwnusfX8IWEh48vsfD+fsEvZaf//ENikP57GtS0zOS5+YvLtJ9Ks/TlSfcuXubpdWn5LpDrH/QqN10J3iGU7NDXPxglrrZ4+6Du8RJipYxZ65PMntznJ3GFnfuf8P84jzdY3kuv3eesMtDkdIzUuDyB2fRUcy9uds8XXlK33gvXv77amM4fp85OEMsFApcvHiR8+fPE+Uicrkc5y9c4MyZ2Xbt21bFkE7kxM8orbUYaegdKjI8MsjcozkqW1WkDdpzyZZ/xgslsxdPo61mZX4Tm4rMcuVZBkZ7GJ8ZYW7hId/89h46MQQ5n5vyKuMz48zdf0xtp8Ha6iqjU1cZHh9iYXcRrGXgVC9IwZO5eYyx9I/3MH1hgmfLj/ni09skdZWZcm3M1NRpFh4ss7FWw2BAwOLjZb76zTfo1FKp7PD+e+9T7O2itrXN9nqZzdIGhZE8U5MTbKxuce+Lx0gjkDbAM+HR/QDiVU717EwZoZk+PUHPQJ67Xzzg4TePEQZKm9v84o9+wdjMMBsrG4T5gNHpQWq1Op/925fUSglEhtDPMTYzyvydZcqlMlJaEIbSaonP//1rVNXQu7TKn/z3ASZmR1l8soKqHiE6tDkYjWspd796QNTnMzE7BmQJMVphKBZDvieHFwju33vA8lwJjCX0FghkHquPHmfc9rsaweMHC9z77bdYY6mUqrz/h+8yOjXM9upjpGlGIR8IcrJNp2PLDCs8mD43QZDz+PKTBzx9uAQiM72+9+G7jM2c4tvSUyyGyTMT5Hty3Pr8Do/vzWOTrIp8Id/ddAM0owwFEFqmLp7i2tVrlEqb3P7sAbXtGN/45PtynL14mvXSKl/821c09lI832OnVubG5Rv0jBSoL5YYmxomyHnc+reHzD96iud5NFSdq9cuv1EQRttHLZom5daFdD7PE8HBtZGFrgKTk5MMDgzi+z69fb3MzExTr9dI07QZANIZpfFexAkXymwGgWeYOTeB0YYnD56CapkV9zsuIwx9g92MTY6ytrLO1souVgukzHqzwVP9+JFkeHCQX/zBHyKtjxWaoAfy+RyF7jz1rZj1lU3SVHNqaoRnT5awFkYmh9gt77K1vktAnoHRPrycoK9/kI8/+k9I4yOExevW5HIRhZ4uNtazjtUawfrTEtR9AhGwt9XAaojyAdA0kWpBYCI84+OZgMDkkVo0TZavP0Lbj4RsBt8cfE9ahkYHSdI6pZVtwiQPRlJa2qG+16DQF4E0BDmPru6AtcUNaqWEyBRIGjHrS5uMporW1AAAF8ZJREFUTg7T3Vtku7SVZeWwgu2NXcyeJNQRe6UGO1sVcoWAIBLo6lE6zuwz0np4NiTQAdJ4SHH4HAigXquDFVy7doMef4XS+haVcqXplzvqLGl/UKFjzfZyGT8JwUo2F8s0kgbdfcWsKrY5WEr3gJkf217IIwNBz1APcSNmd62KH+dAWtafbaHe1xT7Cwg/CzbrHeihVqvx7OEKshHhmQAUNOIUgZ8FKIlspjo0NsDQRD9WGe7euke1FBOYCAH0D/eSL0b0iG4+fv8PEMbPTOs5RRiF5HsikJpCT544iSkt7xCkXdjUsLm4jblgnzuzP4x2KbpD2zoU7vWDt+14O7T8kJlFyhJGEVEY0YgbxHFMLpfLBlyNBsaYZqBk5w6QTrhQZhF/A6P9TMyMsbywRr2s8E14wO+lM9OeZzl1ehDfC5h7MA+p1yxaKhACwnyIRhOnCbHJOlQpJPGWYm+tgaoZJB7Vco3y5i59w0Wibo8ozNE9UOTx7afYVIKQWWCL1DSSBrFOkdbLQqR3DJXNJerVOgKZ3WxakyY6C35pCmfWpv3oWIFo+70EWXHmH3iymrOvA1OftuFwv5uP8l1YJbCpQVgJ1kOlApUaZCgQPkhfIANJXE+zoBADgfTRsUEKnyAKm0WwwRiLihUeXrY9I0hjRVchRHqSVnTwq3k+0rg9Xdt/zwokPjtrVR7cnWPszDAXPphF2DPUynUeffWYtYVN0Ed/LKzIromJQRIgEFhtUUrjB8F3qrRba0AIhJAIa9umVzyfMBeRpCkmBSl8rDWo1GIMeH6A8DJ/jx/4pHGKTizS+i+cbVsLBo0ILJW9Cj1dvUxOT/Bo8yk0so4sjHyEJ0jSlIZJmn5psHXDwuNF6tUU4UmCKECpFJMapJWZm0IJrJEY+4LB2MFL8bI3RGtda3NI1g4r3zcbi2ZQSCakTix/Shy8ZtZawiBAG0OtVgcgiiKMMdTrdXzfR2vdTobeiVl6TrxQyhBOX5xCSHg2v4RQWUDEwdGqQRMVA07NDLOxusHm0ha+yTffz5ZZpEmCUZaHd5+wMb+FtEFTWGy23EEJBB4qVjydW+Rnf3CV/lPdDAwMYi2sr2zi4YO1qESBEiw8WuTpg2WkaUXf2izYI5WIpm/0YAD1oYUn4uCY+0BoiBDNQN4f0LEcNL229ebAyL75SyuF8HJI38fYBCkkXiDwAoltNDs3A8ZkD0Qm6hKNwg+zWYvKwkuz3QpJ4AdNZ35mQw3C7MHSxmCweIdryr/0EGzzHBzSyaaXM5tlga5bHnwxx8KjBfLdeYbGB7h89RLnb5xma72Mes2c/FIKpJ+ZD421eNLD9wRpkoA52FoBVrb/5NDrFqMNQZgNDjK/Jfh+gGgt2G66j41WBHkP3/cwyYvPRTZgkmyubvPV777m5o2fcfrCNDvrNVYfryOMTyPJiuQuzi8xd+spvgnb5zAbsIDwfNJE4XldCJkFtUHWLikP3mXZvdPV3cXgWC9CCirlKuX1XTDPmVOlZXCsj0JPHmMMG0tbWZTwc1vz8x6nJkeQnqS2F7O5vPVagVaODsCC53nESczjx3P09/ehtaZSqfDo0SM2NzcPCWMniiSc8GAeS5ZpZmxmhM31EqXVre+MwC0C42lOn58m6gr59v5cJlQcnlRtbWwjrc/gwBBGAanENn+yGVNmavCsz+qzdaq1GtPnJxmbGWG3XGGvXMOzHtLCTmkXlMdg31AmkqmERGATsiAj03Rq29ZSBdsM++DFcmHBaIs2hjAfYj2Nkbo9Y3u9cwbWZrNDow35Yg58gxYKIwwYS2ljiyAM6RnoQUuFFindAwW6innqezFGQ6Oe0KinDJ8aJCr4GKlRJPQP9aGVprK725xYSCyGvsFe8C1KKHLFiN6BHhr1hCROD9qCX00zItcKjUU1F/RrrNDNtaCZz1cIiVCS2lbCxtMSX//ua9bWVwmLIV74egEqQgj8yKdvuAclUrRM6R3uzsxM1fqBMMDsjlJJNnLuKuazayQ0Bo1KFbvlXbryebr7u7CewkjNwEg/vuext7uXZYjSkp1yhUJPkdHJQbRMMVKjhQLfgtyffXtIVFVTXY/5+tM7pGnCOx/eoNCfB2kpb+2QxpqB/gGElthUYBOZZRjSHkJ7oKBea5DP5+kb7sn252l6Bot4gdccjewHSvUP9/DBH/2Mj375DmeuTjeTHRw05mdLi87fOM1H//VdPvgvP6N7oIC2+wrYWoBe6M/z3h/e5KNfvsfFm+eQofgBd7Tj7dH0wwvB1tYW9+7dZ3l5hSRJWF9f59tvv2V9fSMzvXa4xeDEzigtFuHD+Mwo0rfMPXiKSgRB2yu03+929eY4c/E0pY11tjd28Qja/jman99aKbO6vMr0hUmEFeyWqnj4dPd1UYi6+ebzu6iawVhJWtesLK0we3UGT0oWHiyi6grfhggr2V7ZZXF+mVOzwyh1ie21Mr7wKPQX6Cn2cefz++ztVMiiIlu+wlabWwJ6mCRO2a2UGZ8eoXEzplFJSaqa0lL5NSJfW2ZcqFdidspVTp0e5VLcQFUM2+tVtja3WFpYZvLSMBeuncGikdpn8vI4sU5ZfVrCJoLEKNaW1rl05TxXfn6B0rMdcn0+E6dPsbayzm5pF896WGPA0/SPd3Px57Psbu4xOjOMF8Hqwiq6ofGE3zRTfk/rJYyODRF0SYIugQw8unrzTJwZxaQ+la0qO+Uyk2fHGR0bZmN9nSRR5Ps8hocGWVstZcL8GuNHY8F4lplLU5hUEKcx5y7PopKUlcU10K3ZfjbQqe7WqVT3OH/9HLmwC1WzrC9vUqs0WHzyjPGpYc7enMYPPTzP5+yVaeJ6g5WnK81AI49nC8sMzvRz9YOL5IsRtZ2EfKGLgd4Bvvrsa0y9eZ8ICdbHtzmSnZTHt+e58cF1rvz8PHd//S2VnV2efLvA5IVR3v3FDTaWSggjyXXnGOof4fbn96jsVFh5tsrUhTEuvnMOv8vD9zxmL49jPf2cudSgZUJd7iIlxKKCESmCoH2+sjvZkIgqDW+H1ChSGWOlbW9GCIERFiUS6qKCEh6JqGGEIou+lhxt5OR4+2Sm1Hq9TqPRIElihBA0Gg0qlQpKpUgpMdZ0bMQrnEChFE2fj8USdvtMzIyztrLB5tI2nvHan2o/aJ5l8vQkhWKO27fWSesazwYcMnpagW5Ibv32HhdunGH27CzynEQYUEqxPL+BVs1FtVZglGX16SajY6MIIVhfKCG1pJVtR8eCW5/d41w8w9T0BKdPTyGwKK1ZXSyhUg1WoBJDrdzApmQmWSQ2hdpuAxXvi6VAktY0D27NcfHmWabPTiCsz+56le2VMsa0RP/oEYXxXsrtzx5w7toM0zOT+PjM3VmkvLVNbbvO3c8ecvnGRW68ew3PCho64f7XD1mf30IaD5sa5r9ZJPIixifHmJycwAhDaXWL+5/PQSyy6EwhwEi2tzYZnx5n9ky20H7u7jzPHq1ms5qWH+8Vz5Elyxk5c36a3uEiWmaz0SgXcvH6WdAhc3cX2N0po7Wib7iHkelBBAJtFaW1Hea+mkfV9XNm3pffaRKJjWFnY4+dSpULV8/j+YI0TXjw1RxbqzsIG7TvI2E96uWYO5/f59y1WabPTeDpiEY9prYTs/Fsm7ufP2T2ygw337+BtZZarc5X/36b7ZVdPBsCku3lHW5/cp/z185w4er5zKytNZtLZWzrWmtBdadOspcgjcCmgqVv1+npfcbYqVMMjQ1SfVLl4VdzGK2YmZ1mYnIs87caQ2m5jFEaz3hsr+zy4MvHnLtyhhvvXEMbxdbWJjb2SGoaa2XLO45OLbXdGNmwxNU0Mxe3n7nWEwCNakK13EClKSYxzVyxB88uWAW13TpB6jUTOMDRzQuOzqAZLd8sp+V5XtsP2cr9mgXzdK5IAoipyak3uuMGBweJ4/iNiy0LIRgeHqZer1OpVN5oO9ZaDJozN6e59u4Vfv3/fs3m4x0847MfCdpaKhDx8S/fQ/jwr//8CcmOxrPPjx8yP2ZmdkoICwG5rgijNY1agq6DpyNks8MwwpB6MQQKAC+O8E1T6MiyoWih0H5M1OWTL0RorajXGqi6JTCF7P7yVLaNxENqH/AwforwBVppPB00fZnZ8aSygfFTjK8zv6EK8JMc+7ngji6UBoOWCuXHSN8gEYg0RKTZja5kgsxDvhjhCahWG6RVS6QL7f0YoUn9BrmiT5T3SVJFXFGIOCSwAUqkjJ4e4oNf3uTLL77m6dwixa4CaUNR300IVR7RNpW/ut2tpBImVBhPZdlyMFnHbC0eESL1EcpDyxQRGaJCiB8EJHFKoxITpFHTNH/UzDyWNGhAYEl1Sr4rIp8PqVVqmJrEM0E7u83Bb6WygW2207MhJB6eCrEiu8dEwdJVyCEQVCt1bE3i27CdsckIjRYpJkzJd+fwA5+kEZNUDJ7K9qm8BBmSiUsis4AxYVF+jOcLUF7TX29RMsbvglwxhzGWuJGgqxZfR0gbYIRGeQleQZArhMRxTKNaxxMBQnn4adR2ERhPocMGVmqkDpBx2B54to7fCI0K61g/K0ogG7nss+ybvQ0G7cfZeRIaT4fIJIvqdoE9Py1afXISJ/zZr/6Mv/qrv+I3v/kNf/M3f0OptEWHayRwAmeU7VBzIWnsNfjmszuUl/aQxjtgBz/oPIaFR4vs7u6idrOovhdsFYlEmghrQti2NMrZSEmSPzADaS1RkIQqB6r16uFyMpJsjaOfhKAMtR2LxMen+/AFUR5WHV4H6akQqyy+9Z8bhQkCk8cmOTiUmeVwJ31UsuMN8ZMAkRyU2Mz0G2of9izJXnZ0ki4iDgYRiSwTTVLEbkNjWwMhARHG0i43JZrnI1B55G6RWlki8Yhs+MLr9TIyk7GHiCUe4XeOWSDaeSY97WNroGut2JCAiLDd2R/1PAkEQZqDFALyiFjS2LZI24UnXia2HoHJQ4ND94RoBvpI7WN3Ia5kpkiProO2DUAgrZ8tT2rk0LFFAcLmCG3zOAUEOoetH45YFhaC1IOkaTFtvh5qH1ux2T4RSLrwDuxRWi87zh1IdgGbI0/ucNubf3k6RNaDQ+9l0YyH2x/ERYhbr+z/294nEpHuP0OH9+P4afDcALcdvCfaP0A72rWTOXFC2cbC8vwaILLgmPaM6iCCxl7Mt3cWwBqE2U/eezgu9uA3BPtP/cFPPm862veFtr/3XAcssFgrXthRHP7e9792lPd+CAeXhbz43ey4XrbfA90tLd+fFK11hRK0ROggE9WmRrWMdG/S3sMtyK7Pwc663bXb/etixdFF8mX7y+6PV8xIDyyDeOW1td955cWftQLZXDP53SM/6r3z/We7FVzWvtNblvAXfPE75+QFneAL22YPxD69slUvejIdncfB5R6ZMOaiXGaClR5hGOF5Htaa9prLFp22TOTECqVAQNO/9TLTXaujERqyIIGXBYy8zPR3tNmaeMFfrf++SiRfRTuXe8fx4lHki86CsJLtzR3+/f/8lr3tenMt6PFweOhylK3+SA/lEcT4dc9Bq0P57nDtdXcgXv0B8cLL+R9HZ97gjpfyYgtQa/ZYLBYZHhkmCALCKGRgoJ9KZZfqXvW573TehT+xQgkHR6SvErmXX6C2iDXXOL5wH82Xv1tg+D+u4211tcd+OzVnCUctltxKv7afH1UeUPAXHf/h1yQSVbVsL+w1i2LIl3zvdTgYKbw/H37ZdbKiWXbqWC7XUTZy1B39gKsr3uQwjrq/lz1T328m/75i3Ecv0t15HalD7F/AttFNEAQ+UkqiKGJ0dJTZ2Vl8PyAIAqampqnValhrUalCad2M0LcdNZuEDhPKH/fkHHVf9qUiCa/zcB8f/2G7fM2O9mBtx/ZM8qUi+ZJdiuO+7vZAiw74ol9x0rKlFJ31YHYuLztP33/+3saz4vix2I9Kb/kch4aG6MrnCaOQ7u5uLly4yPj4OKXSJo1Gg9MzMxhjyEU54iRGa4NSKWtrayilXr27H5mOEcrWWps0Td9qO34qz3JntfNoJugfk9c/P511Rh2Onx6ZFUdrTVe+yIULFxgcHCAIAnp6epiamiJJUh49ekSpVKKnt4exsVMUiwW00lgsm5ublEolJ5Sv4k2XmDgcDofjbZKtlQyjkN7eXorFIkEQEEU5jDE8efKYzY1NPM8jl8+Ti7Load00u66traO1ccE8DofD4Th5tCKjU5UQRVGWi9iY5o9maXGJ1bVVNjY26OnpZWhokDAMs8QDxqK0otGoY4w+tHSkE+goobQ2y67i+34zY4N+zcLDDofD4XgbtETN8zyCIMBoQ5qmxHHM5uYmGxsbrKyssLuzy+DQIDs7Zfr7+ykWilnijySmWq3uzyY7QyOBDhLKzAEsGRgY4E//9H9QKBRYXV3h008/ZX19/W03z+FwOBxHQAhJrVrj0bePANBKU2802N3doVaroZQiSRMqlUpmhvWzNZVKpWxsbHScfxI6SChFcxG2lJKRkWEuXLjAyMh/Y2xsjL//+7/vmCm4w+FwOF6OELBd3qa8Uz5gQqVtUhVCEMcxSZJQKpXar3VyH98xQtlic3OTv/3bv6W/f4C//Mu/5OLFi+SiHPVG/W03zeFwOBxHpJX4vMXzGZraiTJs562bfJ6Oq0dprSVNU0qlEltbJaIoIozCdqZ5h8PhcDh+TDpOKGHfDGuNRQqZrWU9UPeu00cfDofD4Tg5dKRQtlBaE4QBfuBnwT6I9m+Hw+FwOH4MOlIoW2tvSqVNisUi169fJ5/PIz2ZOX07KW7Y4XA4HCcar7en96/fZANdXV1orUmS5Ps/fERaEVD1ep3Z07P88Z/8MVeuXGV4eJj79+8706vD4XA4fjQ6ckYJtBMPCJmFElcqFdI0RQjphNLhcDgcPxodtzzkIB999BGzs7P83d/9HZ988glpqrDWdHw1bIfD4XCcHDpWKKWUDA0NUalUuHPnzrGadh0Oh8PhOCoda3qFbBlIkiQdmdLI4XA4HL8fdLRQBkGAUgqtXWJ0h8PhcLwdOs70ms93cfnyJSYnJzl79ixPnjyhVqu+7WY5HA6H4/eUjhHKrHqIoLe3h1/96leMjY2xvLzCP//vf0Zr/bab53A4HI7fU8TU5NQbrbUYHBwkjmP29vaOpUGe59Hf348Qkp2dMkmSdHxmeYfD4XCcXDpmRtlCa83m5uah15xIOhwOh+Nt0dHBPA6Hw+FwvG2cUDocDofD8QreWCi1zhKYgzOROhwOh+Pk8cY+yt3dnfbfLrWcw+FwOE4abyyUrdmkw+FwOBwnkePxUX7H4uqWczgcDofjZHAsy0P8wKdYLKKUotFooJRyZliHw+FwnAiORSgnJyf5i7/4C4qFIusbG/zjP/5P7t69exybdjgcDofjreL19vT+9ZtuRClFqVRir7rHBx98yMjIKJ9++onzXzocDofjJ8+xzCj39vb47LPPePjgIVevXuXUqVMEQUCapsexeYfD4XA43hrHlnDAWovSijRNkVLgSe+4Nu1wOBwOx1vjmDPzCAQCKSW4WB6Hw+FwnACOVyibs8qurgI9PT04tXQ4HA7HT51jCeZpYbGMjIxw5cplurq6AIiiiJ2dne/5psPhcDgcncnxCqWxlMtlxsbG+Pjjj3nv3feYmJjg008/dcWXHQ6Hw/GT5FjrUXq+x8cff8y7777LrVu3+Jd/+RfW19dRSh3nbhwOh8Ph+NE4VqGMoohz586RJAn/8A//wKNHj45z8w6Hw+Fw/OgcazCPEALfD9gp77C6unacm3Y4HA6H461w7ELpeR4WV5vS4XA4HCeDYzG9SimJwojhoWH6+npJkhilXFYeh8PhcPz0eWOhtBbGx8f58z//c6amphkcHOCf/tc/0Wg0jqN9DofD4XC8Vd5YKIUApTTl7TKVSoWFhQX+77/+36xGpcs34HA4HI6fOGJqcuqNnYlSSsIwAixJkmRVQ5xQOhwOh+MEcCw+SmMMjUb98ItOJB0Oh8NxAjjmpOgOh8PhcJwsnFA6HA6Hw/EKnFA6HA6Hw/EKnFA6HA6Hw/EKOk4oLQKX08fhcDgcnUJHCaUlE0oXMutwOByOTqGjhNLhcDgcjk7DCaUDoGnwdkZvh8PheJ7/D0zLZsXcSPTUAAAAAElFTkSuQmCC;" vertex="1" parent="1">
          <mxGeometry x="290" y="500" width="458" height="151" as="geometry" />
        </mxCell>
        <mxCell id="pzDwCbUzXM5383cVoAPk-2" value="This code will stop the program/delay the time to response, since it not gonna handle that to any API (ex: setTimeout)" style="text;html=1;strokeColor=none;fillColor=none;align=center;verticalAlign=middle;whiteSpace=wrap;rounded=0;fontFamily=Comfortaa;fontSource=https%3A%2F%2Ffonts.googleapis.com%2Fcss%3Ffamily%3DComfortaa;fontSize=25;fontStyle=2" vertex="1" parent="1">
          <mxGeometry x="240" y="700" width="540" height="30" as="geometry" />
        </mxCell>
        <mxCell id="pzDwCbUzXM5383cVoAPk-3" value="crypto" style="rounded=0;whiteSpace=wrap;html=1;fontFamily=Comfortaa;fontSource=https%3A%2F%2Ffonts.googleapis.com%2Fcss%3Ffamily%3DComfortaa;fontSize=25;" vertex="1" parent="1">
          <mxGeometry x="1350" y="130" width="120" height="60" as="geometry" />
        </mxCell>
        <mxCell id="pzDwCbUzXM5383cVoAPk-4" value="This design to run slow, to hash the password, so prevent hacker&amp;nbsp;" style="text;html=1;strokeColor=none;fillColor=none;align=center;verticalAlign=middle;whiteSpace=wrap;rounded=0;fontFamily=Comfortaa;fontSource=https%3A%2F%2Ffonts.googleapis.com%2Fcss%3Ffamily%3DComfortaa;fontSize=25;fontStyle=2" vertex="1" parent="1">
          <mxGeometry x="1200" y="220" width="440" height="30" as="geometry" />
        </mxCell>
      </root>
    </mxGraphModel>
  </diagram>
</mxfile>
